<svg width="334" height="488" viewBox="0 0 334 488" fill="none" xmlns="http://www.w3.org/2000/svg">
<mask id="mask0" mask-type="alpha" maskUnits="userSpaceOnUse" x="-126" y="0" width="460" height="488">
<path d="M-120.457 11.5253C-117.923 12.5811 -115.864 11.6836 -115.231 9.67754L-28.4928 46.0514L43.6743 148.468L112.463 166.629L144.56 132.103L180.723 145.934L202.051 189.224L202.157 189.435L242.912 200.258L251.201 186.004L277.808 194.82L287.944 222.008L287.997 222.114L332.184 231.933C332.237 232.619 332.395 233.094 332.606 233.147C332.818 233.2 333.029 232.567 333.029 231.722C333.029 230.877 332.87 230.138 332.606 230.085C332.395 230.033 332.237 230.508 332.184 231.141L288.103 221.111L277.914 193.764L250.99 184.737L242.701 198.991L202.368 188.063L181.093 144.773L180.987 144.562L144.138 130.308L111.935 164.729L44.1494 146.515L-27.7009 43.8341L-115.178 6.77396C-115.811 4.18714 -117.87 1.54753 -120.404 0.491681C-123.466 -0.828126 -125.947 0.597265 -126 3.71201C-126 6.77396 -123.519 10.311 -120.457 11.5253Z" fill="url(#paint0_linear)" fill-opacity="0.55"/>
<path d="M-120.457 11.5253C-117.923 12.5811 -115.864 11.6836 -115.231 9.67754L-28.4928 46.0514L43.6743 148.468L112.463 166.629L144.56 132.103L180.723 145.934L202.051 189.224L202.157 189.435L242.912 200.258L251.201 186.004L277.808 194.82L287.944 222.008L287.997 222.114L332.184 231.933C332.237 232.619 332.395 233.094 332.606 233.147C332.818 233.2 333.029 232.567 333.029 231.722C333.029 230.877 332.87 230.138 332.606 230.085C332.395 230.033 332.237 230.508 332.184 231.141L288.103 221.111L277.914 193.764L250.99 184.737L242.701 198.991L202.368 188.063L181.093 144.773L180.987 144.562L144.138 130.308L111.935 164.729L44.1494 146.515L-27.7009 43.8341L-115.178 6.77396C-115.811 4.18714 -117.87 1.54753 -120.404 0.491681C-123.466 -0.828126 -125.947 0.597265 -126 3.71201C-126 6.77396 -123.519 10.311 -120.457 11.5253Z" fill="url(#paint1_linear)" fill-opacity="0.55"/>
<path d="M-38.7872 60.0414L35.9666 162.194L117.689 181.041L148.995 145.776L176.922 155.543L198.831 198.832L245.288 209.655L253.418 195.242L275.908 201.947L286.255 229.135L303.835 232.461C303.888 233.253 304.099 233.834 304.363 233.886C304.679 233.939 304.943 233.2 304.943 232.197C304.943 231.194 304.679 230.349 304.363 230.296C304.099 230.244 303.888 230.772 303.782 231.511L286.36 228.132L276.013 200.891L253.207 193.975L245.077 208.388L199.042 197.407L177.186 154.064L148.625 143.981L117.267 179.088L36.5474 160.083L-37.9425 57.7713L-73.0494 44.0453C-73.5773 41.6697 -75.3723 39.3468 -77.5895 38.5021C-80.2292 37.4463 -82.3936 38.9245 -82.4464 41.7752C-82.4464 44.626 -80.3347 47.7936 -77.6424 48.7966C-75.4779 49.6413 -73.6301 48.691 -73.1022 46.7377L-38.7872 60.0414Z" fill="url(#paint2_linear)" fill-opacity="0.55"/>
<path d="M-38.7872 60.0414L35.9666 162.194L117.689 181.041L148.995 145.776L176.922 155.543L198.831 198.832L245.288 209.655L253.418 195.242L275.908 201.947L286.255 229.135L303.835 232.461C303.888 233.253 304.099 233.834 304.363 233.886C304.679 233.939 304.943 233.2 304.943 232.197C304.943 231.194 304.679 230.349 304.363 230.296C304.099 230.244 303.888 230.772 303.782 231.511L286.36 228.132L276.013 200.891L253.207 193.975L245.077 208.388L199.042 197.407L177.186 154.064L148.625 143.981L117.267 179.088L36.5474 160.083L-37.9425 57.7713L-73.0494 44.0453C-73.5773 41.6697 -75.3723 39.3468 -77.5895 38.5021C-80.2292 37.4463 -82.3936 38.9245 -82.4464 41.7752C-82.4464 44.626 -80.3347 47.7936 -77.6424 48.7966C-75.4779 49.6413 -73.6301 48.691 -73.1022 46.7377L-38.7872 60.0414Z" fill="url(#paint3_linear)" fill-opacity="0.55"/>
<path d="M332.554 241.752C332.343 241.7 332.184 242.175 332.131 242.808L285.516 235.365L275.063 208.388L254.316 202.792L246.238 217.415L197.353 207.385L175.338 164.728L175.233 164.517L150.79 156.704L119.854 192.708L32.6408 175.129L-36.7283 82.9004C-35.9892 81.2638 -36.3588 78.7826 -37.7841 76.8293C-39.5263 74.5064 -42.1659 73.8201 -43.6969 75.2983C-45.2279 76.8293 -45.0167 79.9968 -43.2217 82.3197C-41.7436 84.273 -39.6847 85.0121 -38.1537 84.3258L32.0073 177.187L120.223 194.556L151.107 158.446L160.82 161.508L115.63 216.148L74.5578 210.394C74.2411 208.757 73.238 207.385 72.0766 207.226C70.5984 207.015 69.437 208.546 69.3842 210.711C69.3842 212.822 70.5456 214.723 72.0238 214.934C73.238 215.092 74.2411 214.036 74.5578 212.453L116.053 218.049L162.193 161.983L174.916 165.995L197.089 208.81L215.936 212.558L209.864 222.325L178.928 217.257L167.947 197.512C168.264 196.404 168.106 194.873 167.525 193.87C166.839 192.656 165.836 192.603 165.255 193.711C164.674 194.873 164.727 196.773 165.413 197.988C165.994 198.991 166.786 199.202 167.367 198.568L178.611 218.682L210.076 223.697L216.886 212.717L246.344 218.629L254.421 203.953L271.104 208.388L258.222 233.675L234.413 230.138L231.087 236.104C230.717 235.47 230.189 235.417 229.82 236.104C229.345 236.895 229.292 238.479 229.662 239.535C230.031 240.591 230.717 240.802 231.14 240.01C231.509 239.324 231.615 238.163 231.457 237.159L234.624 231.511L258.381 234.942L271.737 208.652L274.852 209.496L285.305 236.473L314.288 240.961L312.281 246.029L282.718 242.228L274.957 222.589L273.321 222.272C273.215 221.375 272.951 220.688 272.582 220.583C272.159 220.477 271.79 221.322 271.79 222.483C271.79 223.645 272.107 224.648 272.529 224.7C272.898 224.753 273.162 224.173 273.268 223.328L274.746 223.645L282.507 243.231L312.334 246.926L314.657 240.961L332.131 243.653C332.184 244.339 332.343 244.814 332.554 244.867C332.765 244.92 332.976 244.234 332.976 243.389C332.976 242.491 332.765 241.805 332.554 241.752Z" fill="url(#paint4_linear)" fill-opacity="0.55"/>
<path d="M332.554 241.752C332.343 241.7 332.184 242.175 332.131 242.808L285.516 235.365L275.063 208.388L254.316 202.792L246.238 217.415L197.353 207.385L175.338 164.728L175.233 164.517L150.79 156.704L119.854 192.708L32.6408 175.129L-36.7283 82.9004C-35.9892 81.2638 -36.3588 78.7826 -37.7841 76.8293C-39.5263 74.5064 -42.1659 73.8201 -43.6969 75.2983C-45.2279 76.8293 -45.0167 79.9968 -43.2217 82.3197C-41.7436 84.273 -39.6847 85.0121 -38.1537 84.3258L32.0073 177.187L120.223 194.556L151.107 158.446L160.82 161.508L115.63 216.148L74.5578 210.394C74.2411 208.757 73.238 207.385 72.0766 207.226C70.5984 207.015 69.437 208.546 69.3842 210.711C69.3842 212.822 70.5456 214.723 72.0238 214.934C73.238 215.092 74.2411 214.036 74.5578 212.453L116.053 218.049L162.193 161.983L174.916 165.995L197.089 208.81L215.936 212.558L209.864 222.325L178.928 217.257L167.947 197.512C168.264 196.404 168.106 194.873 167.525 193.87C166.839 192.656 165.836 192.603 165.255 193.711C164.674 194.873 164.727 196.773 165.413 197.988C165.994 198.991 166.786 199.202 167.367 198.568L178.611 218.682L210.076 223.697L216.886 212.717L246.344 218.629L254.421 203.953L271.104 208.388L258.222 233.675L234.413 230.138L231.087 236.104C230.717 235.47 230.189 235.417 229.82 236.104C229.345 236.895 229.292 238.479 229.662 239.535C230.031 240.591 230.717 240.802 231.14 240.01C231.509 239.324 231.615 238.163 231.457 237.159L234.624 231.511L258.381 234.942L271.737 208.652L274.852 209.496L285.305 236.473L314.288 240.961L312.281 246.029L282.718 242.228L274.957 222.589L273.321 222.272C273.215 221.375 272.951 220.688 272.582 220.583C272.159 220.477 271.79 221.322 271.79 222.483C271.79 223.645 272.107 224.648 272.529 224.7C272.898 224.753 273.162 224.173 273.268 223.328L274.746 223.645L282.507 243.231L312.334 246.926L314.657 240.961L332.131 243.653C332.184 244.339 332.343 244.814 332.554 244.867C332.765 244.92 332.976 244.234 332.976 243.389C332.976 242.491 332.765 241.805 332.554 241.752Z" fill="url(#paint5_linear)" fill-opacity="0.55"/>
<path d="M332.237 295.178C332.026 295.231 331.868 295.706 331.815 296.392L295.599 301.619L291.745 311.649L276.911 314.447L271.896 303.731C272.054 302.886 272.001 301.883 271.684 301.302C271.368 300.616 270.892 300.774 270.576 301.672C270.312 302.569 270.312 303.889 270.681 304.575C270.945 305.156 271.315 305.103 271.632 304.575L276.752 315.503L291.323 312.705L285.885 327.012L263.396 332.714L256.111 318.46L237.528 321.997L244.919 306.212L253.893 304.998C253.999 305.948 254.316 306.581 254.738 306.529C255.213 306.476 255.635 305.42 255.635 304.206C255.635 302.991 255.266 302.041 254.738 302.094C254.316 302.147 253.999 302.886 253.893 303.836L244.707 305.05L236.683 322.155V322.208L216.728 325.956L206.855 345.7L169.267 355.045L153.43 333.875C153.746 332.555 153.588 331.077 153.007 330.285C152.268 329.282 151.16 329.652 150.526 331.077C149.893 332.502 149.998 334.456 150.737 335.459C151.371 336.251 152.215 336.145 152.849 335.248L169.003 356.681L206.116 347.284L197.089 365.286L168.739 373.892L141.446 339.049L76.9864 351.032L14.9026 438.72L-3.36349 444.95C-3.78583 443.208 -5.15842 442.258 -6.84775 442.838C-8.90665 443.525 -10.5432 446.111 -10.596 448.645C-10.596 451.179 -8.95947 452.605 -6.90057 451.919C-5.21121 451.338 -3.83862 449.437 -3.36349 447.378L15.589 440.832L77.5143 353.039L141.129 340.896L168.475 375.634L197.353 366.712L216.992 327.276L255.952 319.727L263.29 333.928L286.097 328.068L295.705 302.622L331.815 297.184C331.868 297.818 332.026 298.293 332.237 298.24C332.448 298.187 332.659 297.501 332.659 296.656C332.659 295.812 332.501 295.178 332.237 295.178Z" fill="url(#paint6_linear)" fill-opacity="0.55"/>
<path d="M332.237 295.178C332.026 295.231 331.868 295.706 331.815 296.392L295.599 301.619L291.745 311.649L276.911 314.447L271.896 303.731C272.054 302.886 272.001 301.883 271.684 301.302C271.368 300.616 270.892 300.774 270.576 301.672C270.312 302.569 270.312 303.889 270.681 304.575C270.945 305.156 271.315 305.103 271.632 304.575L276.752 315.503L291.323 312.705L285.885 327.012L263.396 332.714L256.111 318.46L237.528 321.997L244.919 306.212L253.893 304.998C253.999 305.948 254.316 306.581 254.738 306.529C255.213 306.476 255.635 305.42 255.635 304.206C255.635 302.991 255.266 302.041 254.738 302.094C254.316 302.147 253.999 302.886 253.893 303.836L244.707 305.05L236.683 322.155V322.208L216.728 325.956L206.855 345.7L169.267 355.045L153.43 333.875C153.746 332.555 153.588 331.077 153.007 330.285C152.268 329.282 151.16 329.652 150.526 331.077C149.893 332.502 149.998 334.456 150.737 335.459C151.371 336.251 152.215 336.145 152.849 335.248L169.003 356.681L206.116 347.284L197.089 365.286L168.739 373.892L141.446 339.049L76.9864 351.032L14.9026 438.72L-3.36349 444.95C-3.78583 443.208 -5.15842 442.258 -6.84775 442.838C-8.90665 443.525 -10.5432 446.111 -10.596 448.645C-10.596 451.179 -8.95947 452.605 -6.90057 451.919C-5.21121 451.338 -3.83862 449.437 -3.36349 447.378L15.589 440.832L77.5143 353.039L141.129 340.896L168.475 375.634L197.353 366.712L216.992 327.276L255.952 319.727L263.29 333.928L286.097 328.068L295.705 302.622L331.815 297.184C331.868 297.818 332.026 298.293 332.237 298.24C332.448 298.187 332.659 297.501 332.659 296.656C332.659 295.812 332.501 295.178 332.237 295.178Z" fill="url(#paint7_linear)" fill-opacity="0.55"/>
<path d="M23.7187 454.136L83.7435 365.973L136.325 354.147L164.357 388.251L200.573 375.845L219.842 336.251L253.682 328.543L261.126 342.586L287.68 334.878L297.236 309.274L305.735 307.848C305.788 308.588 305.999 309.115 306.263 309.063C306.58 309.01 306.844 308.165 306.844 307.215C306.844 306.265 306.58 305.473 306.316 305.526C306.052 305.578 305.841 306.159 305.788 306.898L297.183 308.429L287.627 333.981L261.337 341.477L253.893 327.382L219.684 334.984L200.414 374.525L164.78 386.562L136.853 352.352L83.4268 364.072L23.2964 452.13L-51.1407 479.898C-51.6159 477.998 -53.3052 477.1 -55.3113 477.84C-57.7398 478.737 -59.7459 481.693 -59.7459 484.439C-59.7459 487.184 -57.7926 488.662 -55.3641 487.712C-53.358 486.92 -51.6687 484.755 -51.1407 482.485L23.7187 454.136Z" fill="url(#paint8_linear)" fill-opacity="0.55"/>
<path d="M23.7187 454.136L83.7435 365.973L136.325 354.147L164.357 388.251L200.573 375.845L219.842 336.251L253.682 328.543L261.126 342.586L287.68 334.878L297.236 309.274L305.735 307.848C305.788 308.588 305.999 309.115 306.263 309.063C306.58 309.01 306.844 308.165 306.844 307.215C306.844 306.265 306.58 305.473 306.316 305.526C306.052 305.578 305.841 306.159 305.788 306.898L297.183 308.429L287.627 333.981L261.337 341.477L253.893 327.382L219.684 334.984L200.414 374.525L164.78 386.562L136.853 352.352L83.4268 364.072L23.2964 452.13L-51.1407 479.898C-51.6159 477.998 -53.3052 477.1 -55.3113 477.84C-57.7398 478.737 -59.7459 481.693 -59.7459 484.439C-59.7459 487.184 -57.7926 488.662 -55.3641 487.712C-53.358 486.92 -51.6687 484.755 -51.1407 482.485L23.7187 454.136Z" fill="url(#paint9_linear)" fill-opacity="0.55"/>
<path d="M332.184 306.898C331.973 306.951 331.815 307.479 331.762 308.112L297.816 315.292L288.314 341.055L260.175 350.029L252.679 336.145L221.004 344.222L201.893 384.186L162.562 398.757L134.266 365.339L86.2776 377.481L27.0975 466.542C26.7279 464.958 25.5137 464.166 24.0355 464.747C22.2406 465.486 20.7624 467.967 20.7624 470.343C20.7624 472.719 22.1878 473.986 23.9827 473.247C25.4609 472.613 26.7279 470.818 27.0975 468.865L27.6254 468.654L86.7528 379.276L133.896 367.134L162.14 400.341L162.246 400.499L202.157 385.559L221.215 345.542L252.521 337.412L260.017 351.296L288.472 342.005L297.975 316.19L331.762 308.904C331.815 309.538 331.973 310.013 332.184 309.96C332.395 309.907 332.606 309.168 332.606 308.324C332.606 307.479 332.448 306.845 332.184 306.898Z" fill="url(#paint10_linear)" fill-opacity="0.55"/>
<path d="M332.184 306.898C331.973 306.951 331.815 307.479 331.762 308.112L297.816 315.292L288.314 341.055L260.175 350.029L252.679 336.145L221.004 344.222L201.893 384.186L162.562 398.757L134.266 365.339L86.2776 377.481L27.0975 466.542C26.7279 464.958 25.5137 464.166 24.0355 464.747C22.2406 465.486 20.7624 467.967 20.7624 470.343C20.7624 472.719 22.1878 473.986 23.9827 473.247C25.4609 472.613 26.7279 470.818 27.0975 468.865L27.6254 468.654L86.7528 379.276L133.896 367.134L162.14 400.341L162.246 400.499L202.157 385.559L221.215 345.542L252.521 337.412L260.017 351.296L288.472 342.005L297.975 316.19L331.762 308.904C331.815 309.538 331.973 310.013 332.184 309.96C332.395 309.907 332.606 309.168 332.606 308.324C332.606 307.479 332.448 306.845 332.184 306.898Z" fill="url(#paint11_linear)" fill-opacity="0.55"/>
<path d="M332.342 275.434C332.131 275.434 331.973 275.909 331.92 276.595L322.259 276.912L318.722 266.67L270.576 265.562L268.728 261.338C268.886 260.494 268.833 259.491 268.517 258.857C268.2 258.065 267.672 258.171 267.408 259.068C267.144 259.966 267.144 261.286 267.514 262.077C267.778 262.711 268.2 262.764 268.464 262.236L270.417 266.723L318.669 267.568L321.942 276.912L278.23 278.338L274.06 287.998L255.424 289.371L249.723 277.598L222.218 278.285L211.712 297.923L206.38 298.399L186.847 265.403L146.355 264.717C146.144 263.344 145.458 262.341 144.613 262.341C143.61 262.341 142.765 263.714 142.765 265.509C142.765 267.304 143.557 268.729 144.613 268.729C145.458 268.729 146.144 267.726 146.355 266.406L186.583 266.934L205.324 298.504L176.605 301.144L162.774 280.027L55.6053 282.825L29.7899 313.708C28.6285 312.758 27.0447 312.916 25.9361 314.289C24.5635 315.926 24.3523 318.618 25.5137 320.307C26.6752 321.997 28.6813 321.997 30.0011 320.36C31.1097 318.988 31.4265 316.929 30.8457 315.345L56.1333 284.937L152.162 281.98L139.651 300.985L92.8767 304.786L56.0277 354.675L12.3157 362.805L6.45569 370.143C5.18869 369.299 3.44653 369.668 2.23233 371.252C0.701355 373.152 0.490204 376.003 1.7572 377.587C3.02423 379.171 5.24149 378.96 6.71967 377.059C7.9339 375.475 8.30347 373.311 7.66995 371.674L13.002 364.97L56.5556 356.681L93.299 306.634L139.967 302.622L153.588 281.875L162.404 281.611L170.323 293.647L159.553 311.227L120.698 315.714C120.487 314.289 119.642 313.339 118.692 313.444C117.531 313.55 116.58 315.239 116.58 317.14C116.58 319.04 117.531 320.466 118.692 320.307C119.642 320.202 120.487 319.04 120.698 317.562L159.87 312.864L170.956 294.65L176.236 302.675L211.87 299.243L222.323 279.552L238.319 279.077L222.271 310.963L191.968 315.239L183.732 330.18C183.204 329.546 182.465 329.704 181.937 330.655C181.304 331.763 181.198 333.611 181.726 334.72C182.254 335.828 183.152 335.775 183.785 334.667C184.313 333.717 184.419 332.344 184.207 331.235L192.232 316.717L222.482 312.336L239.217 279.077L249.511 278.76L255.213 290.48L274.165 289.002L278.336 279.341L315.607 277.968L312.176 287.471L293.171 289.107C293.118 288.315 292.854 287.735 292.537 287.787C292.168 287.84 291.904 288.685 291.904 289.741C291.904 290.796 292.168 291.588 292.537 291.588C292.854 291.536 293.065 290.955 293.171 290.163L312.281 288.474L316.03 278.074L331.973 277.493C332.026 278.126 332.184 278.601 332.395 278.601C332.606 278.601 332.818 277.915 332.818 277.018C332.765 276.12 332.606 275.434 332.342 275.434Z" fill="url(#paint12_linear)" fill-opacity="0.55"/>
<path d="M332.342 275.434C332.131 275.434 331.973 275.909 331.92 276.595L322.259 276.912L318.722 266.67L270.576 265.562L268.728 261.338C268.886 260.494 268.833 259.491 268.517 258.857C268.2 258.065 267.672 258.171 267.408 259.068C267.144 259.966 267.144 261.286 267.514 262.077C267.778 262.711 268.2 262.764 268.464 262.236L270.417 266.723L318.669 267.568L321.942 276.912L278.23 278.338L274.06 287.998L255.424 289.371L249.723 277.598L222.218 278.285L211.712 297.923L206.38 298.399L186.847 265.403L146.355 264.717C146.144 263.344 145.458 262.341 144.613 262.341C143.61 262.341 142.765 263.714 142.765 265.509C142.765 267.304 143.557 268.729 144.613 268.729C145.458 268.729 146.144 267.726 146.355 266.406L186.583 266.934L205.324 298.504L176.605 301.144L162.774 280.027L55.6053 282.825L29.7899 313.708C28.6285 312.758 27.0447 312.916 25.9361 314.289C24.5635 315.926 24.3523 318.618 25.5137 320.307C26.6752 321.997 28.6813 321.997 30.0011 320.36C31.1097 318.988 31.4265 316.929 30.8457 315.345L56.1333 284.937L152.162 281.98L139.651 300.985L92.8767 304.786L56.0277 354.675L12.3157 362.805L6.45569 370.143C5.18869 369.299 3.44653 369.668 2.23233 371.252C0.701355 373.152 0.490204 376.003 1.7572 377.587C3.02423 379.171 5.24149 378.96 6.71967 377.059C7.9339 375.475 8.30347 373.311 7.66995 371.674L13.002 364.97L56.5556 356.681L93.299 306.634L139.967 302.622L153.588 281.875L162.404 281.611L170.323 293.647L159.553 311.227L120.698 315.714C120.487 314.289 119.642 313.339 118.692 313.444C117.531 313.55 116.58 315.239 116.58 317.14C116.58 319.04 117.531 320.466 118.692 320.307C119.642 320.202 120.487 319.04 120.698 317.562L159.87 312.864L170.956 294.65L176.236 302.675L211.87 299.243L222.323 279.552L238.319 279.077L222.271 310.963L191.968 315.239L183.732 330.18C183.204 329.546 182.465 329.704 181.937 330.655C181.304 331.763 181.198 333.611 181.726 334.72C182.254 335.828 183.152 335.775 183.785 334.667C184.313 333.717 184.419 332.344 184.207 331.235L192.232 316.717L222.482 312.336L239.217 279.077L249.511 278.76L255.213 290.48L274.165 289.002L278.336 279.341L315.607 277.968L312.176 287.471L293.171 289.107C293.118 288.315 292.854 287.735 292.537 287.787C292.168 287.84 291.904 288.685 291.904 289.741C291.904 290.796 292.168 291.588 292.537 291.588C292.854 291.536 293.065 290.955 293.171 290.163L312.281 288.474L316.03 278.074L331.973 277.493C332.026 278.126 332.184 278.601 332.395 278.601C332.606 278.601 332.818 277.915 332.818 277.018C332.765 276.12 332.606 275.434 332.342 275.434Z" fill="url(#paint13_linear)" fill-opacity="0.55"/>
<path d="M332.448 258.752C332.237 258.752 332.079 259.227 332.026 259.86L278.442 256.481L274.377 246.715L255.477 244.762L249.617 256.376L222.482 254.845L212.187 234.889L176.605 230.56L162.563 251.255L56.2918 245.184L26.5698 208.229L26.3058 207.913L3.07718 204.851C2.65485 202.897 1.33502 201.366 -0.301544 201.102C-2.30765 200.838 -3.94418 202.633 -3.94418 205.115C-3.94418 207.596 -2.36041 209.813 -0.354309 210.077C1.28226 210.288 2.65485 209.074 3.07718 207.226L25.7251 210.077L55.5527 246.979L55.7639 247.243L162.879 252.892L176.922 232.091L188.8 233.464L208.545 269.046L208.65 269.204L235.997 269.468C236.102 270.471 236.525 271.211 236.947 271.211C237.528 271.211 237.95 270.155 238.003 268.835C238.003 267.515 237.581 266.459 237 266.459C236.525 266.459 236.155 267.198 235.997 268.201L208.914 267.832L190.015 233.622L212.029 236.209L222.324 256.112L249.776 257.537L255.635 245.923L274.218 247.771L278.283 257.537L332.026 260.652C332.079 261.286 332.237 261.813 332.448 261.813C332.659 261.813 332.871 261.127 332.871 260.283C332.871 259.438 332.659 258.752 332.448 258.752Z" fill="url(#paint14_linear)" fill-opacity="0.55"/>
<path d="M332.448 258.752C332.237 258.752 332.079 259.227 332.026 259.86L278.442 256.481L274.377 246.715L255.477 244.762L249.617 256.376L222.482 254.845L212.187 234.889L176.605 230.56L162.563 251.255L56.2918 245.184L26.5698 208.229L26.3058 207.913L3.07718 204.851C2.65485 202.897 1.33502 201.366 -0.301544 201.102C-2.30765 200.838 -3.94418 202.633 -3.94418 205.115C-3.94418 207.596 -2.36041 209.813 -0.354309 210.077C1.28226 210.288 2.65485 209.074 3.07718 207.226L25.7251 210.077L55.5527 246.979L55.7639 247.243L162.879 252.892L176.922 232.091L188.8 233.464L208.545 269.046L208.65 269.204L235.997 269.468C236.102 270.471 236.525 271.211 236.947 271.211C237.528 271.211 237.95 270.155 238.003 268.835C238.003 267.515 237.581 266.459 237 266.459C236.525 266.459 236.155 267.198 235.997 268.201L208.914 267.832L190.015 233.622L212.029 236.209L222.324 256.112L249.776 257.537L255.635 245.923L274.218 247.771L278.283 257.537L332.026 260.652C332.079 261.286 332.237 261.813 332.448 261.813C332.659 261.813 332.871 261.127 332.871 260.283C332.871 259.438 332.659 258.752 332.448 258.752Z" fill="url(#paint15_linear)" fill-opacity="0.55"/>
</mask>
<g mask="url(#mask0)">
<rect width="387" height="483" transform="matrix(-1 0 0 1 320.029 30)" fill="url(#paint16_linear)" fill-opacity="0.55"/>
<rect width="387" height="483" transform="matrix(-1 0 0 1 320.029 30)" fill="url(#paint17_linear)"/>
</g>
<defs>
<linearGradient id="paint0_linear" x1="103.514" y1="0" x2="103.514" y2="233.15" gradientUnits="userSpaceOnUse">
<stop stop-color="white"/>
<stop offset="1" stop-color="white" stop-opacity="0"/>
</linearGradient>
<linearGradient id="paint1_linear" x1="103.514" y1="0" x2="103.514" y2="233.15" gradientUnits="userSpaceOnUse">
<stop stop-color="#FD8424"/>
<stop offset="1" stop-color="white" stop-opacity="0"/>
</linearGradient>
<linearGradient id="paint2_linear" x1="111.248" y1="38.1608" x2="111.248" y2="233.889" gradientUnits="userSpaceOnUse">
<stop stop-color="white"/>
<stop offset="1" stop-color="white" stop-opacity="0"/>
</linearGradient>
<linearGradient id="paint3_linear" x1="111.248" y1="38.1608" x2="111.248" y2="233.889" gradientUnits="userSpaceOnUse">
<stop stop-color="#FD8424"/>
<stop offset="1" stop-color="white" stop-opacity="0"/>
</linearGradient>
<linearGradient id="paint4_linear" x1="144.128" y1="74.5187" x2="144.128" y2="246.926" gradientUnits="userSpaceOnUse">
<stop stop-color="white"/>
<stop offset="1" stop-color="white" stop-opacity="0"/>
</linearGradient>
<linearGradient id="paint5_linear" x1="144.128" y1="74.5187" x2="144.128" y2="246.926" gradientUnits="userSpaceOnUse">
<stop stop-color="#FD8424"/>
<stop offset="1" stop-color="white" stop-opacity="0"/>
</linearGradient>
<linearGradient id="paint6_linear" x1="161.032" y1="295.178" x2="161.032" y2="452.09" gradientUnits="userSpaceOnUse">
<stop stop-color="white"/>
<stop offset="1" stop-color="white" stop-opacity="0"/>
</linearGradient>
<linearGradient id="paint7_linear" x1="161.032" y1="295.178" x2="161.032" y2="452.09" gradientUnits="userSpaceOnUse">
<stop stop-color="#FD8424"/>
<stop offset="1" stop-color="white" stop-opacity="0"/>
</linearGradient>
<linearGradient id="paint8_linear" x1="123.549" y1="305.523" x2="123.549" y2="488" gradientUnits="userSpaceOnUse">
<stop stop-color="white"/>
<stop offset="1" stop-color="white" stop-opacity="0"/>
</linearGradient>
<linearGradient id="paint9_linear" x1="123.549" y1="305.523" x2="123.549" y2="488" gradientUnits="userSpaceOnUse">
<stop stop-color="#FD8424"/>
<stop offset="1" stop-color="white" stop-opacity="0"/>
</linearGradient>
<linearGradient id="paint10_linear" x1="176.684" y1="306.895" x2="176.684" y2="473.457" gradientUnits="userSpaceOnUse">
<stop stop-color="white"/>
<stop offset="1" stop-color="white" stop-opacity="0"/>
</linearGradient>
<linearGradient id="paint11_linear" x1="176.684" y1="306.895" x2="176.684" y2="473.457" gradientUnits="userSpaceOnUse">
<stop stop-color="#FD8424"/>
<stop offset="1" stop-color="white" stop-opacity="0"/>
</linearGradient>
<linearGradient id="paint12_linear" x1="166.874" y1="258.324" x2="166.874" y2="378.644" gradientUnits="userSpaceOnUse">
<stop stop-color="white"/>
<stop offset="1" stop-color="white" stop-opacity="0"/>
</linearGradient>
<linearGradient id="paint13_linear" x1="166.874" y1="258.324" x2="166.874" y2="378.644" gradientUnits="userSpaceOnUse">
<stop stop-color="#FD8424"/>
<stop offset="1" stop-color="white" stop-opacity="0"/>
</linearGradient>
<linearGradient id="paint14_linear" x1="164.463" y1="201.077" x2="164.463" y2="271.211" gradientUnits="userSpaceOnUse">
<stop stop-color="white"/>
<stop offset="1" stop-color="white" stop-opacity="0"/>
</linearGradient>
<linearGradient id="paint15_linear" x1="164.463" y1="201.077" x2="164.463" y2="271.211" gradientUnits="userSpaceOnUse">
<stop stop-color="#FD8424"/>
<stop offset="1" stop-color="white" stop-opacity="0"/>
</linearGradient>
<linearGradient id="paint16_linear" x1="286.942" y1="275.5" x2="68.7947" y2="264.546" gradientUnits="userSpaceOnUse">
<stop stop-color="white"/>
<stop offset="1" stop-color="white" stop-opacity="0"/>
</linearGradient>
<linearGradient id="paint17_linear" x1="69.5" y1="123.5" x2="240.5" y2="224.5" gradientUnits="userSpaceOnUse">
<stop stop-color="#FD8424"/>
<stop offset="1" stop-color="white" stop-opacity="0"/>
</linearGradient>
</defs>
</svg>
