<svg width="333" height="488" viewBox="0 0 333 488" fill="none" xmlns="http://www.w3.org/2000/svg">
<mask id="mask0" mask-type="alpha" maskUnits="userSpaceOnUse" x="0" y="0" width="460" height="488">
<path d="M453.486 11.5253C450.952 12.5811 448.893 11.6836 448.259 9.67754L361.522 46.0514L289.355 148.468L220.566 166.629L188.468 132.103L152.306 145.934L130.978 189.224L130.872 189.435L90.1164 200.258L81.828 186.004L55.2207 194.82L45.0846 222.008L45.0318 222.114L0.844677 231.933C0.791884 232.619 0.633507 233.094 0.422338 233.147C0.211169 233.2 0 232.567 0 231.722C0 230.877 0.158377 230.138 0.422338 230.085C0.633507 230.033 0.791884 230.508 0.844677 231.141L44.9262 221.111L55.1151 193.764L82.0392 184.737L90.3276 198.991L130.661 188.063L151.936 144.773L152.042 144.562L188.891 130.308L221.094 164.729L288.879 146.515L360.73 43.8341L448.207 6.77396C448.84 4.18714 450.899 1.54753 453.433 0.491681C456.495 -0.828126 458.976 0.597265 459.029 3.71201C459.029 6.77396 456.548 10.311 453.486 11.5253Z" fill="url(#paint0_linear)" fill-opacity="0.55"/>
<path d="M453.486 11.5253C450.952 12.5811 448.893 11.6836 448.259 9.67754L361.522 46.0514L289.355 148.468L220.566 166.629L188.468 132.103L152.306 145.934L130.978 189.224L130.872 189.435L90.1164 200.258L81.828 186.004L55.2207 194.82L45.0846 222.008L45.0318 222.114L0.844677 231.933C0.791884 232.619 0.633507 233.094 0.422338 233.147C0.211169 233.2 0 232.567 0 231.722C0 230.877 0.158377 230.138 0.422338 230.085C0.633507 230.033 0.791884 230.508 0.844677 231.141L44.9262 221.111L55.1151 193.764L82.0392 184.737L90.3276 198.991L130.661 188.063L151.936 144.773L152.042 144.562L188.891 130.308L221.094 164.729L288.879 146.515L360.73 43.8341L448.207 6.77396C448.84 4.18714 450.899 1.54753 453.433 0.491681C456.495 -0.828126 458.976 0.597265 459.029 3.71201C459.029 6.77396 456.548 10.311 453.486 11.5253Z" fill="url(#paint1_linear)" fill-opacity="0.55"/>
<path d="M371.816 60.0414L297.062 162.194L215.34 181.041L184.034 145.776L156.107 155.543L134.198 198.832L87.7407 209.655L79.6107 195.242L57.1212 201.947L46.7739 229.135L29.1941 232.461C29.1413 233.253 28.9301 233.834 28.6662 233.886C28.3494 233.939 28.0854 233.2 28.0854 232.197C28.0854 231.194 28.3494 230.349 28.6662 230.296C28.9301 230.244 29.1413 230.772 29.2469 231.511L46.6683 228.132L57.0156 200.891L79.8219 193.975L87.9519 208.388L133.987 197.407L155.843 154.064L184.403 143.981L215.762 179.088L296.481 160.083L370.971 57.7713L406.078 44.0453C406.606 41.6696 408.401 39.3468 410.618 38.5021C413.258 37.4463 415.422 38.9244 415.475 41.7752C415.475 44.626 413.364 47.7935 410.671 48.7966C408.507 49.6413 406.659 48.691 406.131 46.7377L371.816 60.0414Z" fill="url(#paint2_linear)" fill-opacity="0.55"/>
<path d="M371.816 60.0414L297.062 162.194L215.34 181.041L184.034 145.776L156.107 155.543L134.198 198.832L87.7407 209.655L79.6107 195.242L57.1212 201.947L46.7739 229.135L29.1941 232.461C29.1413 233.253 28.9301 233.834 28.6662 233.886C28.3494 233.939 28.0854 233.2 28.0854 232.197C28.0854 231.194 28.3494 230.349 28.6662 230.296C28.9301 230.244 29.1413 230.772 29.2469 231.511L46.6683 228.132L57.0156 200.891L79.8219 193.975L87.9519 208.388L133.987 197.407L155.843 154.064L184.403 143.981L215.762 179.088L296.481 160.083L370.971 57.7713L406.078 44.0453C406.606 41.6696 408.401 39.3468 410.618 38.5021C413.258 37.4463 415.422 38.9244 415.475 41.7752C415.475 44.626 413.364 47.7935 410.671 48.7966C408.507 49.6413 406.659 48.691 406.131 46.7377L371.816 60.0414Z" fill="url(#paint3_linear)" fill-opacity="0.55"/>
<path d="M0.475073 241.752C0.686242 241.7 0.844619 242.175 0.897411 242.808L47.513 235.365L57.9659 208.388L78.7132 202.792L86.7905 217.415L135.676 207.385L157.691 164.728L157.796 164.517L182.239 156.704L213.175 192.708L300.388 175.129L369.757 82.9004C369.018 81.2638 369.388 78.7826 370.813 76.8293C372.555 74.5064 375.195 73.8201 376.726 75.2983C378.257 76.8293 378.046 79.9968 376.251 82.3197C374.772 84.273 372.714 85.0121 371.183 84.3258L301.022 177.187L212.806 194.556L181.922 158.446L172.208 161.508L217.399 216.148L258.471 210.394C258.788 208.757 259.791 207.385 260.952 207.226C262.43 207.015 263.592 208.546 263.645 210.711C263.645 212.822 262.483 214.723 261.005 214.934C259.791 215.092 258.788 214.036 258.471 212.453L216.976 218.049L170.836 161.983L158.113 165.995L135.94 208.81L117.093 212.558L123.164 222.325L154.101 217.257L165.081 197.512C164.765 196.404 164.923 194.873 165.504 193.87C166.19 192.656 167.193 192.603 167.774 193.711C168.355 194.873 168.302 196.773 167.615 197.988C167.035 198.991 166.243 199.202 165.662 198.568L154.417 218.682L122.953 223.697L116.143 212.717L86.6849 218.629L78.6077 203.953L61.9253 208.388L74.8066 233.675L98.6159 230.138L101.942 236.104C102.311 235.47 102.839 235.417 103.209 236.104C103.684 236.895 103.737 238.479 103.367 239.535C102.998 240.591 102.311 240.802 101.889 240.01C101.52 239.324 101.414 238.163 101.572 237.159L98.4048 231.511L74.6482 234.942L61.2918 208.652L58.177 209.496L47.7242 236.473L18.7412 240.961L20.7473 246.029L50.311 242.228L58.0715 222.589L59.708 222.272C59.8136 221.375 60.0776 220.688 60.4471 220.583C60.8694 220.477 61.239 221.322 61.239 222.483C61.239 223.645 60.9222 224.648 60.4999 224.7C60.1304 224.753 59.8664 224.173 59.7608 223.328L58.2826 223.645L50.5222 243.231L20.6945 246.926L18.3717 240.961L0.897411 243.653C0.844619 244.339 0.686242 244.814 0.475073 244.867C0.263903 244.92 0.0527344 244.234 0.0527344 243.389C0.0527344 242.491 0.263903 241.805 0.475073 241.752Z" fill="url(#paint4_linear)" fill-opacity="0.55"/>
<path d="M0.475073 241.752C0.686242 241.7 0.844619 242.175 0.897411 242.808L47.513 235.365L57.9659 208.388L78.7132 202.792L86.7905 217.415L135.676 207.385L157.691 164.728L157.796 164.517L182.239 156.704L213.175 192.708L300.388 175.129L369.757 82.9004C369.018 81.2638 369.388 78.7826 370.813 76.8293C372.555 74.5064 375.195 73.8201 376.726 75.2983C378.257 76.8293 378.046 79.9968 376.251 82.3197C374.772 84.273 372.714 85.0121 371.183 84.3258L301.022 177.187L212.806 194.556L181.922 158.446L172.208 161.508L217.399 216.148L258.471 210.394C258.788 208.757 259.791 207.385 260.952 207.226C262.43 207.015 263.592 208.546 263.645 210.711C263.645 212.822 262.483 214.723 261.005 214.934C259.791 215.092 258.788 214.036 258.471 212.453L216.976 218.049L170.836 161.983L158.113 165.995L135.94 208.81L117.093 212.558L123.164 222.325L154.101 217.257L165.081 197.512C164.765 196.404 164.923 194.873 165.504 193.87C166.19 192.656 167.193 192.603 167.774 193.711C168.355 194.873 168.302 196.773 167.615 197.988C167.035 198.991 166.243 199.202 165.662 198.568L154.417 218.682L122.953 223.697L116.143 212.717L86.6849 218.629L78.6077 203.953L61.9253 208.388L74.8066 233.675L98.6159 230.138L101.942 236.104C102.311 235.47 102.839 235.417 103.209 236.104C103.684 236.895 103.737 238.479 103.367 239.535C102.998 240.591 102.311 240.802 101.889 240.01C101.52 239.324 101.414 238.163 101.572 237.159L98.4048 231.511L74.6482 234.942L61.2918 208.652L58.177 209.496L47.7242 236.473L18.7412 240.961L20.7473 246.029L50.311 242.228L58.0715 222.589L59.708 222.272C59.8136 221.375 60.0776 220.688 60.4471 220.583C60.8694 220.477 61.239 221.322 61.239 222.483C61.239 223.645 60.9222 224.648 60.4999 224.7C60.1304 224.753 59.8664 224.173 59.7608 223.328L58.2826 223.645L50.5222 243.231L20.6945 246.926L18.3717 240.961L0.897411 243.653C0.844619 244.339 0.686242 244.814 0.475073 244.867C0.263903 244.92 0.0527344 244.234 0.0527344 243.389C0.0527344 242.491 0.263903 241.805 0.475073 241.752Z" fill="url(#paint5_linear)" fill-opacity="0.55"/>
<path d="M0.791967 295.178C1.00314 295.231 1.16151 295.706 1.21431 296.392L37.4298 301.619L41.2836 311.649L56.1183 314.447L61.1335 303.731C60.9752 302.886 61.028 301.883 61.3447 301.302C61.6615 300.616 62.1366 300.774 62.4534 301.672C62.7173 302.569 62.7173 303.889 62.3478 304.575C62.0838 305.156 61.7143 305.103 61.3975 304.575L56.2767 315.503L41.706 312.705L47.1436 327.012L69.6331 332.714L76.9184 318.46L95.5013 321.997L88.1104 306.212L79.1357 304.998C79.0301 305.948 78.7134 306.581 78.291 306.529C77.8159 306.476 77.3936 305.42 77.3936 304.206C77.3936 302.991 77.7631 302.041 78.291 302.094C78.7134 302.147 79.0301 302.886 79.1357 303.836L88.3216 305.05L96.346 322.155V322.208L116.301 325.956L126.174 345.7L163.762 355.045L179.599 333.875C179.283 332.555 179.441 331.077 180.022 330.285C180.761 329.282 181.87 329.652 182.503 331.077C183.137 332.502 183.031 334.456 182.292 335.459C181.658 336.251 180.814 336.145 180.18 335.248L164.026 356.681L126.913 347.284L135.94 365.286L164.29 373.892L191.583 339.049L256.043 351.032L318.126 438.72L336.393 444.95C336.815 443.208 338.187 442.258 339.877 442.838C341.936 443.525 343.572 446.111 343.625 448.645C343.625 451.179 341.989 452.605 339.93 451.919C338.24 451.338 336.868 449.437 336.393 447.378L317.44 440.832L255.515 353.039L191.9 340.896L164.554 375.634L135.676 366.712L116.038 327.276L77.0768 319.727L69.7387 333.928L46.9324 328.068L37.3242 302.622L1.21431 297.184C1.16151 297.818 1.00314 298.293 0.791967 298.24C0.580798 298.187 0.369629 297.501 0.369629 296.656C0.369629 295.812 0.528006 295.178 0.791967 295.178Z" fill="url(#paint6_linear)" fill-opacity="0.55"/>
<path d="M0.791967 295.178C1.00314 295.231 1.16151 295.706 1.21431 296.392L37.4298 301.619L41.2836 311.649L56.1183 314.447L61.1335 303.731C60.9752 302.886 61.028 301.883 61.3447 301.302C61.6615 300.616 62.1366 300.774 62.4534 301.672C62.7173 302.569 62.7173 303.889 62.3478 304.575C62.0838 305.156 61.7143 305.103 61.3975 304.575L56.2767 315.503L41.706 312.705L47.1436 327.012L69.6331 332.714L76.9184 318.46L95.5013 321.997L88.1104 306.212L79.1357 304.998C79.0301 305.948 78.7134 306.581 78.291 306.529C77.8159 306.476 77.3936 305.42 77.3936 304.206C77.3936 302.991 77.7631 302.041 78.291 302.094C78.7134 302.147 79.0301 302.886 79.1357 303.836L88.3216 305.05L96.346 322.155V322.208L116.301 325.956L126.174 345.7L163.762 355.045L179.599 333.875C179.283 332.555 179.441 331.077 180.022 330.285C180.761 329.282 181.87 329.652 182.503 331.077C183.137 332.502 183.031 334.456 182.292 335.459C181.658 336.251 180.814 336.145 180.18 335.248L164.026 356.681L126.913 347.284L135.94 365.286L164.29 373.892L191.583 339.049L256.043 351.032L318.126 438.72L336.393 444.95C336.815 443.208 338.187 442.258 339.877 442.838C341.936 443.525 343.572 446.111 343.625 448.645C343.625 451.179 341.989 452.605 339.93 451.919C338.24 451.338 336.868 449.437 336.393 447.378L317.44 440.832L255.515 353.039L191.9 340.896L164.554 375.634L135.676 366.712L116.038 327.276L77.0768 319.727L69.7387 333.928L46.9324 328.068L37.3242 302.622L1.21431 297.184C1.16151 297.818 1.00314 298.293 0.791967 298.24C0.580798 298.187 0.369629 297.501 0.369629 296.656C0.369629 295.812 0.528006 295.178 0.791967 295.178Z" fill="url(#paint7_linear)" fill-opacity="0.55"/>
<path d="M309.31 454.136L249.285 365.973L196.704 354.147L168.671 388.251L132.456 375.845L113.187 336.251L79.3469 328.543L71.9032 342.586L45.3487 334.878L35.7933 309.274L27.2937 307.848C27.2409 308.588 27.0297 309.115 26.7658 309.063C26.449 309.01 26.1851 308.165 26.1851 307.215C26.1851 306.265 26.449 305.473 26.713 305.526C26.9769 305.578 27.1881 306.159 27.2409 306.898L35.846 308.429L45.4015 333.981L71.692 341.477L79.1357 327.382L113.345 334.984L132.614 374.525L168.249 386.562L196.176 352.352L249.602 364.072L309.732 452.13L384.17 479.898C384.645 477.998 386.334 477.1 388.34 477.84C390.769 478.737 392.775 481.693 392.775 484.439C392.775 487.184 390.821 488.662 388.393 487.712C386.387 486.92 384.697 484.755 384.17 482.485L309.31 454.136Z" fill="url(#paint8_linear)" fill-opacity="0.55"/>
<path d="M309.31 454.136L249.285 365.973L196.704 354.147L168.671 388.251L132.456 375.845L113.187 336.251L79.3469 328.543L71.9032 342.586L45.3487 334.878L35.7933 309.274L27.2937 307.848C27.2409 308.588 27.0297 309.115 26.7658 309.063C26.449 309.01 26.1851 308.165 26.1851 307.215C26.1851 306.265 26.449 305.473 26.713 305.526C26.9769 305.578 27.1881 306.159 27.2409 306.898L35.846 308.429L45.4015 333.981L71.692 341.477L79.1357 327.382L113.345 334.984L132.614 374.525L168.249 386.562L196.176 352.352L249.602 364.072L309.732 452.13L384.17 479.898C384.645 477.998 386.334 477.1 388.34 477.84C390.769 478.737 392.775 481.693 392.775 484.439C392.775 487.184 390.821 488.662 388.393 487.712C386.387 486.92 384.697 484.755 384.17 482.485L309.31 454.136Z" fill="url(#paint9_linear)" fill-opacity="0.55"/>
<path d="M0.844702 306.898C1.05587 306.951 1.21425 307.479 1.26704 308.112L35.2125 315.292L44.7151 341.055L72.8534 350.029L80.3499 336.145L112.025 344.222L131.136 384.186L170.466 398.757L198.763 365.339L246.751 377.481L305.931 466.542C306.301 464.958 307.515 464.166 308.993 464.747C310.788 465.486 312.266 467.967 312.266 470.343C312.266 472.719 310.841 473.986 309.046 473.247C307.568 472.613 306.301 470.818 305.931 468.865L305.403 468.654L246.276 379.276L199.133 367.134L170.889 400.341L170.783 400.499L130.872 385.559L111.814 345.542L80.5083 337.412L73.0118 351.296L44.5567 342.005L35.0541 316.19L1.26704 308.904C1.21425 309.538 1.05587 310.013 0.844702 309.96C0.633533 309.907 0.422363 309.168 0.422363 308.324C0.422363 307.479 0.58074 306.845 0.844702 306.898Z" fill="url(#paint10_linear)" fill-opacity="0.55"/>
<path d="M0.844702 306.898C1.05587 306.951 1.21425 307.479 1.26704 308.112L35.2125 315.292L44.7151 341.055L72.8534 350.029L80.3499 336.145L112.025 344.222L131.136 384.186L170.466 398.757L198.763 365.339L246.751 377.481L305.931 466.542C306.301 464.958 307.515 464.166 308.993 464.747C310.788 465.486 312.266 467.967 312.266 470.343C312.266 472.719 310.841 473.986 309.046 473.247C307.568 472.613 306.301 470.818 305.931 468.865L305.403 468.654L246.276 379.276L199.133 367.134L170.889 400.341L170.783 400.499L130.872 385.559L111.814 345.542L80.5083 337.412L73.0118 351.296L44.5567 342.005L35.0541 316.19L1.26704 308.904C1.21425 309.538 1.05587 310.013 0.844702 309.96C0.633533 309.907 0.422363 309.168 0.422363 308.324C0.422363 307.479 0.58074 306.845 0.844702 306.898Z" fill="url(#paint11_linear)" fill-opacity="0.55"/>
<path d="M0.686068 275.434C0.897237 275.434 1.05561 275.909 1.10841 276.595L10.7694 276.912L14.3065 266.67L62.453 265.562L64.3008 261.338C64.1424 260.494 64.1952 259.491 64.5119 258.857C64.8287 258.065 65.3566 258.171 65.6206 259.068C65.8845 259.966 65.8845 261.286 65.515 262.077C65.251 262.711 64.8287 262.764 64.5647 262.236L62.6114 266.723L14.3593 267.568L11.0861 276.912L54.7982 278.338L58.9688 287.998L77.6044 289.371L83.306 277.598L110.811 278.285L121.316 297.923L126.648 298.399L146.182 265.403L186.673 264.717C186.884 263.344 187.571 262.341 188.415 262.341C189.418 262.341 190.263 263.714 190.263 265.509C190.263 267.304 189.471 268.729 188.415 268.729C187.571 268.729 186.884 267.726 186.673 266.406L146.446 266.934L127.704 298.504L156.423 301.144L170.255 280.027L277.423 282.825L303.239 313.708C304.4 312.758 305.984 312.916 307.092 314.289C308.465 315.926 308.676 318.618 307.515 320.307C306.353 321.997 304.347 321.997 303.027 320.36C301.919 318.988 301.602 316.929 302.183 315.345L276.895 284.937L180.866 281.98L193.378 300.985L240.152 304.786L277.001 354.675L320.713 362.805L326.573 370.143C327.84 369.299 329.582 369.668 330.796 371.252C332.327 373.152 332.538 376.003 331.271 377.587C330.004 379.171 327.787 378.96 326.309 377.059C325.095 375.475 324.725 373.311 325.359 371.674L320.027 364.97L276.473 356.681L239.73 306.634L193.061 302.622L179.441 281.875L170.624 281.611L162.706 293.647L173.475 311.227L212.33 315.714C212.542 314.289 213.386 313.339 214.336 313.444C215.498 313.55 216.448 315.239 216.448 317.14C216.448 319.04 215.498 320.466 214.336 320.307C213.386 320.202 212.542 319.04 212.33 317.562L173.158 312.864L162.072 294.65L156.793 302.675L121.158 299.243L110.705 279.552L94.7091 279.077L110.758 310.963L141.061 315.239L149.296 330.18C149.824 329.546 150.563 329.704 151.091 330.655C151.725 331.763 151.83 333.611 151.302 334.72C150.775 335.828 149.877 335.775 149.244 334.667C148.716 333.717 148.61 332.344 148.821 331.235L140.797 316.717L110.547 312.336L93.8117 279.077L83.5172 278.76L77.8156 290.48L58.8632 289.002L54.6926 279.341L17.4212 277.968L20.8527 287.471L39.8579 289.107C39.9107 288.315 40.1747 287.735 40.4915 287.787C40.861 287.84 41.125 288.685 41.125 289.741C41.125 290.796 40.861 291.588 40.4915 291.588C40.1747 291.536 39.9635 290.955 39.8579 290.163L20.7471 288.474L16.9989 278.074L1.05561 277.493C1.00282 278.126 0.844445 278.601 0.633276 278.601C0.422107 278.601 0.210938 277.915 0.210938 277.018C0.26373 276.12 0.422107 275.434 0.686068 275.434Z" fill="url(#paint12_linear)" fill-opacity="0.55"/>
<path d="M0.686068 275.434C0.897237 275.434 1.05561 275.909 1.10841 276.595L10.7694 276.912L14.3065 266.67L62.453 265.562L64.3008 261.338C64.1424 260.494 64.1952 259.491 64.5119 258.857C64.8287 258.065 65.3566 258.171 65.6206 259.068C65.8845 259.966 65.8845 261.286 65.515 262.077C65.251 262.711 64.8287 262.764 64.5647 262.236L62.6114 266.723L14.3593 267.568L11.0861 276.912L54.7982 278.338L58.9688 287.998L77.6044 289.371L83.306 277.598L110.811 278.285L121.316 297.923L126.648 298.399L146.182 265.403L186.673 264.717C186.884 263.344 187.571 262.341 188.415 262.341C189.418 262.341 190.263 263.714 190.263 265.509C190.263 267.304 189.471 268.729 188.415 268.729C187.571 268.729 186.884 267.726 186.673 266.406L146.446 266.934L127.704 298.504L156.423 301.144L170.255 280.027L277.423 282.825L303.239 313.708C304.4 312.758 305.984 312.916 307.092 314.289C308.465 315.926 308.676 318.618 307.515 320.307C306.353 321.997 304.347 321.997 303.027 320.36C301.919 318.988 301.602 316.929 302.183 315.345L276.895 284.937L180.866 281.98L193.378 300.985L240.152 304.786L277.001 354.675L320.713 362.805L326.573 370.143C327.84 369.299 329.582 369.668 330.796 371.252C332.327 373.152 332.538 376.003 331.271 377.587C330.004 379.171 327.787 378.96 326.309 377.059C325.095 375.475 324.725 373.311 325.359 371.674L320.027 364.97L276.473 356.681L239.73 306.634L193.061 302.622L179.441 281.875L170.624 281.611L162.706 293.647L173.475 311.227L212.33 315.714C212.542 314.289 213.386 313.339 214.336 313.444C215.498 313.55 216.448 315.239 216.448 317.14C216.448 319.04 215.498 320.466 214.336 320.307C213.386 320.202 212.542 319.04 212.33 317.562L173.158 312.864L162.072 294.65L156.793 302.675L121.158 299.243L110.705 279.552L94.7091 279.077L110.758 310.963L141.061 315.239L149.296 330.18C149.824 329.546 150.563 329.704 151.091 330.655C151.725 331.763 151.83 333.611 151.302 334.72C150.775 335.828 149.877 335.775 149.244 334.667C148.716 333.717 148.61 332.344 148.821 331.235L140.797 316.717L110.547 312.336L93.8117 279.077L83.5172 278.76L77.8156 290.48L58.8632 289.002L54.6926 279.341L17.4212 277.968L20.8527 287.471L39.8579 289.107C39.9107 288.315 40.1747 287.735 40.4915 287.787C40.861 287.84 41.125 288.685 41.125 289.741C41.125 290.796 40.861 291.588 40.4915 291.588C40.1747 291.536 39.9635 290.955 39.8579 290.163L20.7471 288.474L16.9989 278.074L1.05561 277.493C1.00282 278.126 0.844445 278.601 0.633276 278.601C0.422107 278.601 0.210938 277.915 0.210938 277.018C0.26373 276.12 0.422107 275.434 0.686068 275.434Z" fill="url(#paint13_linear)" fill-opacity="0.55"/>
<path d="M0.580542 258.752C0.791711 258.752 0.950087 259.227 1.00288 259.86L54.5871 256.481L58.6521 246.715L77.5517 244.762L83.4116 256.376L110.547 254.845L120.841 234.889L156.423 230.56L170.466 251.255L276.737 245.184L306.459 208.229L306.723 207.913L329.952 204.851C330.374 202.897 331.694 201.366 333.33 201.102C335.336 200.838 336.973 202.633 336.973 205.115C336.973 207.596 335.389 209.813 333.383 210.077C331.747 210.288 330.374 209.074 329.952 207.226L307.304 210.077L277.476 246.979L277.265 247.243L170.149 252.892L156.107 232.091L144.228 233.464L124.484 269.046L124.378 269.204L97.0321 269.468C96.9265 270.471 96.5041 271.211 96.0818 271.211C95.5011 271.211 95.0787 270.155 95.0259 268.835C95.0259 267.515 95.4483 266.459 96.029 266.459C96.5041 266.459 96.8737 267.198 97.0321 268.201L124.114 267.832L143.014 233.622L121 236.209L110.705 256.112L83.2533 257.537L77.3933 245.923L58.8104 247.771L54.7454 257.537L1.00288 260.652C0.950087 261.286 0.791711 261.813 0.580542 261.813C0.369372 261.813 0.158203 261.127 0.158203 260.283C0.158203 259.438 0.369372 258.752 0.580542 258.752Z" fill="url(#paint14_linear)" fill-opacity="0.55"/>
<path d="M0.580542 258.752C0.791711 258.752 0.950087 259.227 1.00288 259.86L54.5871 256.481L58.6521 246.715L77.5517 244.762L83.4116 256.376L110.547 254.845L120.841 234.889L156.423 230.56L170.466 251.255L276.737 245.184L306.459 208.229L306.723 207.913L329.952 204.851C330.374 202.897 331.694 201.366 333.33 201.102C335.336 200.838 336.973 202.633 336.973 205.115C336.973 207.596 335.389 209.813 333.383 210.077C331.747 210.288 330.374 209.074 329.952 207.226L307.304 210.077L277.476 246.979L277.265 247.243L170.149 252.892L156.107 232.091L144.228 233.464L124.484 269.046L124.378 269.204L97.0321 269.468C96.9265 270.471 96.5041 271.211 96.0818 271.211C95.5011 271.211 95.0787 270.155 95.0259 268.835C95.0259 267.515 95.4483 266.459 96.029 266.459C96.5041 266.459 96.8737 267.198 97.0321 268.201L124.114 267.832L143.014 233.622L121 236.209L110.705 256.112L83.2533 257.537L77.3933 245.923L58.8104 247.771L54.7454 257.537L1.00288 260.652C0.950087 261.286 0.791711 261.813 0.580542 261.813C0.369372 261.813 0.158203 261.127 0.158203 260.283C0.158203 259.438 0.369372 258.752 0.580542 258.752Z" fill="url(#paint15_linear)" fill-opacity="0.55"/>
</mask>
<g mask="url(#mask0)">
<rect x="13" y="30" width="387" height="483" fill="url(#paint16_linear)" fill-opacity="0.55"/>
<rect x="13" y="30" width="387" height="483" fill="url(#paint17_linear)"/>
</g>
<defs>
<linearGradient id="paint0_linear" x1="229.514" y1="0" x2="229.514" y2="233.15" gradientUnits="userSpaceOnUse">
<stop stop-color="white"/>
<stop offset="1" stop-color="white" stop-opacity="0"/>
</linearGradient>
<linearGradient id="paint1_linear" x1="229.514" y1="0" x2="229.514" y2="233.15" gradientUnits="userSpaceOnUse">
<stop stop-color="#FD8424"/>
<stop offset="1" stop-color="white" stop-opacity="0"/>
</linearGradient>
<linearGradient id="paint2_linear" x1="221.78" y1="38.1608" x2="221.78" y2="233.889" gradientUnits="userSpaceOnUse">
<stop stop-color="white"/>
<stop offset="1" stop-color="white" stop-opacity="0"/>
</linearGradient>
<linearGradient id="paint3_linear" x1="221.78" y1="38.1608" x2="221.78" y2="233.889" gradientUnits="userSpaceOnUse">
<stop stop-color="#FD8424"/>
<stop offset="1" stop-color="white" stop-opacity="0"/>
</linearGradient>
<linearGradient id="paint4_linear" x1="188.901" y1="74.5187" x2="188.901" y2="246.926" gradientUnits="userSpaceOnUse">
<stop stop-color="white"/>
<stop offset="1" stop-color="white" stop-opacity="0"/>
</linearGradient>
<linearGradient id="paint5_linear" x1="188.901" y1="74.5187" x2="188.901" y2="246.926" gradientUnits="userSpaceOnUse">
<stop stop-color="#FD8424"/>
<stop offset="1" stop-color="white" stop-opacity="0"/>
</linearGradient>
<linearGradient id="paint6_linear" x1="171.997" y1="295.178" x2="171.997" y2="452.09" gradientUnits="userSpaceOnUse">
<stop stop-color="white"/>
<stop offset="1" stop-color="white" stop-opacity="0"/>
</linearGradient>
<linearGradient id="paint7_linear" x1="171.997" y1="295.178" x2="171.997" y2="452.09" gradientUnits="userSpaceOnUse">
<stop stop-color="#FD8424"/>
<stop offset="1" stop-color="white" stop-opacity="0"/>
</linearGradient>
<linearGradient id="paint8_linear" x1="209.48" y1="305.523" x2="209.48" y2="488" gradientUnits="userSpaceOnUse">
<stop stop-color="white"/>
<stop offset="1" stop-color="white" stop-opacity="0"/>
</linearGradient>
<linearGradient id="paint9_linear" x1="209.48" y1="305.523" x2="209.48" y2="488" gradientUnits="userSpaceOnUse">
<stop stop-color="#FD8424"/>
<stop offset="1" stop-color="white" stop-opacity="0"/>
</linearGradient>
<linearGradient id="paint10_linear" x1="156.344" y1="306.895" x2="156.344" y2="473.457" gradientUnits="userSpaceOnUse">
<stop stop-color="white"/>
<stop offset="1" stop-color="white" stop-opacity="0"/>
</linearGradient>
<linearGradient id="paint11_linear" x1="156.344" y1="306.895" x2="156.344" y2="473.457" gradientUnits="userSpaceOnUse">
<stop stop-color="#FD8424"/>
<stop offset="1" stop-color="white" stop-opacity="0"/>
</linearGradient>
<linearGradient id="paint12_linear" x1="166.155" y1="258.324" x2="166.155" y2="378.644" gradientUnits="userSpaceOnUse">
<stop stop-color="white"/>
<stop offset="1" stop-color="white" stop-opacity="0"/>
</linearGradient>
<linearGradient id="paint13_linear" x1="166.155" y1="258.324" x2="166.155" y2="378.644" gradientUnits="userSpaceOnUse">
<stop stop-color="#FD8424"/>
<stop offset="1" stop-color="white" stop-opacity="0"/>
</linearGradient>
<linearGradient id="paint14_linear" x1="168.566" y1="201.077" x2="168.566" y2="271.211" gradientUnits="userSpaceOnUse">
<stop stop-color="white"/>
<stop offset="1" stop-color="white" stop-opacity="0"/>
</linearGradient>
<linearGradient id="paint15_linear" x1="168.566" y1="201.077" x2="168.566" y2="271.211" gradientUnits="userSpaceOnUse">
<stop stop-color="#FD8424"/>
<stop offset="1" stop-color="white" stop-opacity="0"/>
</linearGradient>
<linearGradient id="paint16_linear" x1="299.942" y1="305.5" x2="81.7947" y2="294.546" gradientUnits="userSpaceOnUse">
<stop stop-color="white"/>
<stop offset="1" stop-color="white" stop-opacity="0"/>
</linearGradient>
<linearGradient id="paint17_linear" x1="82.5" y1="153.5" x2="253.5" y2="254.5" gradientUnits="userSpaceOnUse">
<stop stop-color="#FD8424"/>
<stop offset="1" stop-color="white" stop-opacity="0"/>
</linearGradient>
</defs>
</svg>
