<svg width="1240" height="647" viewBox="0 0 1240 647" fill="none" xmlns="http://www.w3.org/2000/svg">
<mask id="mask0" mask-type="alpha" maskUnits="userSpaceOnUse" x="907" y="159" width="460" height="488">
<path d="M1360.49 170.525C1357.95 171.581 1355.89 170.684 1355.26 168.678L1268.52 205.051L1196.35 307.468L1127.57 325.629L1095.47 291.103L1059.31 304.934L1037.98 348.224L1037.87 348.435L997.116 359.258L988.828 345.004L962.221 353.82L952.085 381.008L952.032 381.114L907.845 390.933C907.792 391.619 907.634 392.094 907.422 392.147C907.211 392.2 907 391.567 907 390.722C907 389.877 907.158 389.138 907.422 389.085C907.634 389.033 907.792 389.508 907.845 390.141L951.926 380.111L962.115 352.764L989.039 343.737L997.328 357.991L1037.66 347.063L1058.94 303.773L1059.04 303.562L1095.89 289.308L1128.09 323.729L1195.88 305.515L1267.73 202.834L1355.21 165.774C1355.84 163.187 1357.9 160.548 1360.43 159.492C1363.49 158.172 1365.98 159.597 1366.03 162.712C1366.03 165.774 1363.55 169.311 1360.49 170.525Z" fill="url(#paint0_linear)" fill-opacity="0.55"/>
<path d="M1360.49 170.525C1357.95 171.581 1355.89 170.684 1355.26 168.678L1268.52 205.051L1196.35 307.468L1127.57 325.629L1095.47 291.103L1059.31 304.934L1037.98 348.224L1037.87 348.435L997.116 359.258L988.828 345.004L962.221 353.82L952.085 381.008L952.032 381.114L907.845 390.933C907.792 391.619 907.634 392.094 907.422 392.147C907.211 392.2 907 391.567 907 390.722C907 389.877 907.158 389.138 907.422 389.085C907.634 389.033 907.792 389.508 907.845 390.141L951.926 380.111L962.115 352.764L989.039 343.737L997.328 357.991L1037.66 347.063L1058.94 303.773L1059.04 303.562L1095.89 289.308L1128.09 323.729L1195.88 305.515L1267.73 202.834L1355.21 165.774C1355.84 163.187 1357.9 160.548 1360.43 159.492C1363.49 158.172 1365.98 159.597 1366.03 162.712C1366.03 165.774 1363.55 169.311 1360.49 170.525Z" fill="url(#paint1_linear)" fill-opacity="0.55"/>
<path d="M1278.82 219.041L1204.06 321.194L1122.34 340.041L1091.03 304.776L1063.11 314.543L1041.2 357.832L994.741 368.655L986.611 354.242L964.121 360.947L953.774 388.135L936.194 391.461C936.141 392.253 935.93 392.834 935.666 392.886C935.349 392.939 935.085 392.2 935.085 391.197C935.085 390.194 935.349 389.349 935.666 389.296C935.93 389.244 936.141 389.772 936.247 390.511L953.668 387.132L964.016 359.891L986.822 352.975L994.952 367.388L1040.99 356.407L1062.84 313.064L1091.4 302.981L1122.76 338.088L1203.48 319.083L1277.97 216.771L1313.08 203.045C1313.61 200.67 1315.4 198.347 1317.62 197.502C1320.26 196.446 1322.42 197.924 1322.48 200.775C1322.48 203.626 1320.36 206.794 1317.67 207.797C1315.51 208.641 1313.66 207.691 1313.13 205.738L1278.82 219.041Z" fill="url(#paint2_linear)" fill-opacity="0.55"/>
<path d="M1278.82 219.041L1204.06 321.194L1122.34 340.041L1091.03 304.776L1063.11 314.543L1041.2 357.832L994.741 368.655L986.611 354.242L964.121 360.947L953.774 388.135L936.194 391.461C936.141 392.253 935.93 392.834 935.666 392.886C935.349 392.939 935.085 392.2 935.085 391.197C935.085 390.194 935.349 389.349 935.666 389.296C935.93 389.244 936.141 389.772 936.247 390.511L953.668 387.132L964.016 359.891L986.822 352.975L994.952 367.388L1040.99 356.407L1062.84 313.064L1091.4 302.981L1122.76 338.088L1203.48 319.083L1277.97 216.771L1313.08 203.045C1313.61 200.67 1315.4 198.347 1317.62 197.502C1320.26 196.446 1322.42 197.924 1322.48 200.775C1322.48 203.626 1320.36 206.794 1317.67 207.797C1315.51 208.641 1313.66 207.691 1313.13 205.738L1278.82 219.041Z" fill="url(#paint3_linear)" fill-opacity="0.55"/>
<path d="M907.475 400.752C907.686 400.7 907.845 401.175 907.897 401.808L954.513 394.365L964.966 367.388L985.713 361.792L993.79 376.415L1042.68 366.385L1064.69 323.728L1064.8 323.517L1089.24 315.704L1120.18 351.708L1207.39 334.129L1276.76 241.9C1276.02 240.264 1276.39 237.783 1277.81 235.829C1279.56 233.506 1282.19 232.82 1283.73 234.298C1285.26 235.829 1285.05 238.997 1283.25 241.32C1281.77 243.273 1279.71 244.012 1278.18 243.326L1208.02 336.187L1119.81 353.556L1088.92 317.446L1079.21 320.508L1124.4 375.148L1165.47 369.394C1165.79 367.757 1166.79 366.385 1167.95 366.226C1169.43 366.015 1170.59 367.546 1170.64 369.711C1170.64 371.822 1169.48 373.723 1168.01 373.934C1166.79 374.092 1165.79 373.036 1165.47 371.453L1123.98 377.049L1077.84 320.983L1065.11 324.995L1042.94 367.81L1024.09 371.558L1030.16 381.325L1061.1 376.257L1072.08 356.512C1071.76 355.404 1071.92 353.873 1072.5 352.87C1073.19 351.656 1074.19 351.603 1074.77 352.711C1075.35 353.873 1075.3 355.773 1074.62 356.988C1074.03 357.991 1073.24 358.202 1072.66 357.568L1061.42 377.682L1029.95 382.697L1023.14 371.717L993.685 377.629L985.608 362.953L968.925 367.388L981.807 392.675L1005.62 389.138L1008.94 395.104C1009.31 394.47 1009.84 394.417 1010.21 395.104C1010.68 395.895 1010.74 397.479 1010.37 398.535C1010 399.591 1009.31 399.802 1008.89 399.01C1008.52 398.324 1008.41 397.163 1008.57 396.159L1005.4 390.511L981.648 393.942L968.292 367.652L965.177 368.496L954.724 395.473L925.741 399.961L927.747 405.029L957.311 401.228L965.071 381.589L966.708 381.272C966.814 380.375 967.078 379.688 967.447 379.583C967.869 379.477 968.239 380.322 968.239 381.483C968.239 382.645 967.922 383.648 967.5 383.7C967.13 383.753 966.866 383.173 966.761 382.328L965.283 382.645L957.522 402.231L927.695 405.926L925.372 399.961L907.897 402.653C907.845 403.339 907.686 403.814 907.475 403.867C907.264 403.92 907.053 403.234 907.053 402.389C907.053 401.491 907.264 400.805 907.475 400.752Z" fill="url(#paint4_linear)" fill-opacity="0.55"/>
<path d="M907.475 400.752C907.686 400.7 907.845 401.175 907.897 401.808L954.513 394.365L964.966 367.388L985.713 361.792L993.79 376.415L1042.68 366.385L1064.69 323.728L1064.8 323.517L1089.24 315.704L1120.18 351.708L1207.39 334.129L1276.76 241.9C1276.02 240.264 1276.39 237.783 1277.81 235.829C1279.56 233.506 1282.19 232.82 1283.73 234.298C1285.26 235.829 1285.05 238.997 1283.25 241.32C1281.77 243.273 1279.71 244.012 1278.18 243.326L1208.02 336.187L1119.81 353.556L1088.92 317.446L1079.21 320.508L1124.4 375.148L1165.47 369.394C1165.79 367.757 1166.79 366.385 1167.95 366.226C1169.43 366.015 1170.59 367.546 1170.64 369.711C1170.64 371.822 1169.48 373.723 1168.01 373.934C1166.79 374.092 1165.79 373.036 1165.47 371.453L1123.98 377.049L1077.84 320.983L1065.11 324.995L1042.94 367.81L1024.09 371.558L1030.16 381.325L1061.1 376.257L1072.08 356.512C1071.76 355.404 1071.92 353.873 1072.5 352.87C1073.19 351.656 1074.19 351.603 1074.77 352.711C1075.35 353.873 1075.3 355.773 1074.62 356.988C1074.03 357.991 1073.24 358.202 1072.66 357.568L1061.42 377.682L1029.95 382.697L1023.14 371.717L993.685 377.629L985.608 362.953L968.925 367.388L981.807 392.675L1005.62 389.138L1008.94 395.104C1009.31 394.47 1009.84 394.417 1010.21 395.104C1010.68 395.895 1010.74 397.479 1010.37 398.535C1010 399.591 1009.31 399.802 1008.89 399.01C1008.52 398.324 1008.41 397.163 1008.57 396.159L1005.4 390.511L981.648 393.942L968.292 367.652L965.177 368.496L954.724 395.473L925.741 399.961L927.747 405.029L957.311 401.228L965.071 381.589L966.708 381.272C966.814 380.375 967.078 379.688 967.447 379.583C967.869 379.477 968.239 380.322 968.239 381.483C968.239 382.645 967.922 383.648 967.5 383.7C967.13 383.753 966.866 383.173 966.761 382.328L965.283 382.645L957.522 402.231L927.695 405.926L925.372 399.961L907.897 402.653C907.845 403.339 907.686 403.814 907.475 403.867C907.264 403.92 907.053 403.234 907.053 402.389C907.053 401.491 907.264 400.805 907.475 400.752Z" fill="url(#paint5_linear)" fill-opacity="0.55"/>
<path d="M907.792 454.178C908.003 454.231 908.161 454.706 908.214 455.392L944.43 460.619L948.283 470.649L963.118 473.447L968.133 462.731C967.975 461.886 968.028 460.883 968.344 460.302C968.661 459.616 969.136 459.774 969.453 460.672C969.717 461.569 969.717 462.889 969.348 463.575C969.084 464.156 968.714 464.103 968.397 463.575L963.276 474.503L948.706 471.705L954.143 486.012L976.633 491.714L983.918 477.46L1002.5 480.997L995.11 465.212L986.135 463.998C986.03 464.948 985.713 465.581 985.291 465.529C984.816 465.476 984.393 464.42 984.393 463.206C984.393 461.992 984.763 461.041 985.291 461.094C985.713 461.147 986.03 461.886 986.135 462.836L995.321 464.05L1003.35 481.155V481.208L1023.3 484.956L1033.17 504.7L1070.76 514.045L1086.6 492.875C1086.28 491.555 1086.44 490.077 1087.02 489.285C1087.76 488.282 1088.87 488.652 1089.5 490.077C1090.14 491.502 1090.03 493.456 1089.29 494.459C1088.66 495.251 1087.81 495.145 1087.18 494.248L1071.03 515.681L1033.91 506.284L1042.94 524.286L1071.29 532.892L1098.58 498.049L1163.04 510.032L1225.13 597.72L1243.39 603.95C1243.81 602.208 1245.19 601.258 1246.88 601.838C1248.94 602.525 1250.57 605.111 1250.62 607.645C1250.62 610.179 1248.99 611.605 1246.93 610.919C1245.24 610.338 1243.87 608.437 1243.39 606.378L1224.44 599.832L1162.51 512.039L1098.9 499.896L1071.55 534.634L1042.68 525.712L1023.04 486.276L984.077 478.727L976.738 492.928L953.932 487.068L944.324 461.622L908.214 456.184C908.161 456.818 908.003 457.293 907.792 457.24C907.581 457.187 907.369 456.501 907.369 455.656C907.369 454.812 907.528 454.178 907.792 454.178Z" fill="url(#paint6_linear)" fill-opacity="0.55"/>
<path d="M907.792 454.178C908.003 454.231 908.161 454.706 908.214 455.392L944.43 460.619L948.283 470.649L963.118 473.447L968.133 462.731C967.975 461.886 968.028 460.883 968.344 460.302C968.661 459.616 969.136 459.774 969.453 460.672C969.717 461.569 969.717 462.889 969.348 463.575C969.084 464.156 968.714 464.103 968.397 463.575L963.276 474.503L948.706 471.705L954.143 486.012L976.633 491.714L983.918 477.46L1002.5 480.997L995.11 465.212L986.135 463.998C986.03 464.948 985.713 465.581 985.291 465.529C984.816 465.476 984.393 464.42 984.393 463.206C984.393 461.992 984.763 461.041 985.291 461.094C985.713 461.147 986.03 461.886 986.135 462.836L995.321 464.05L1003.35 481.155V481.208L1023.3 484.956L1033.17 504.7L1070.76 514.045L1086.6 492.875C1086.28 491.555 1086.44 490.077 1087.02 489.285C1087.76 488.282 1088.87 488.652 1089.5 490.077C1090.14 491.502 1090.03 493.456 1089.29 494.459C1088.66 495.251 1087.81 495.145 1087.18 494.248L1071.03 515.681L1033.91 506.284L1042.94 524.286L1071.29 532.892L1098.58 498.049L1163.04 510.032L1225.13 597.72L1243.39 603.95C1243.81 602.208 1245.19 601.258 1246.88 601.838C1248.94 602.525 1250.57 605.111 1250.62 607.645C1250.62 610.179 1248.99 611.605 1246.93 610.919C1245.24 610.338 1243.87 608.437 1243.39 606.378L1224.44 599.832L1162.51 512.039L1098.9 499.896L1071.55 534.634L1042.68 525.712L1023.04 486.276L984.077 478.727L976.738 492.928L953.932 487.068L944.324 461.622L908.214 456.184C908.161 456.818 908.003 457.293 907.792 457.24C907.581 457.187 907.369 456.501 907.369 455.656C907.369 454.812 907.528 454.178 907.792 454.178Z" fill="url(#paint7_linear)" fill-opacity="0.55"/>
<path d="M1216.31 613.136L1156.29 524.973L1103.7 513.147L1075.67 547.251L1039.46 534.845L1020.19 495.251L986.347 487.543L978.903 501.586L952.349 493.878L942.793 468.274L934.294 466.848C934.241 467.588 934.03 468.115 933.766 468.063C933.449 468.01 933.185 467.165 933.185 466.215C933.185 465.265 933.449 464.473 933.713 464.526C933.977 464.578 934.188 465.159 934.241 465.898L942.846 467.429L952.401 492.981L978.692 500.477L986.136 486.382L1020.35 493.984L1039.61 533.525L1075.25 545.562L1103.18 511.352L1156.6 523.072L1216.73 611.13L1291.17 638.898C1291.64 636.998 1293.33 636.1 1295.34 636.84C1297.77 637.737 1299.77 640.693 1299.77 643.439C1299.77 646.184 1297.82 647.662 1295.39 646.712C1293.39 645.92 1291.7 643.755 1291.17 641.485L1216.31 613.136Z" fill="url(#paint8_linear)" fill-opacity="0.55"/>
<path d="M1216.31 613.136L1156.29 524.973L1103.7 513.147L1075.67 547.251L1039.46 534.845L1020.19 495.251L986.347 487.543L978.903 501.586L952.349 493.878L942.793 468.274L934.294 466.848C934.241 467.588 934.03 468.115 933.766 468.063C933.449 468.01 933.185 467.165 933.185 466.215C933.185 465.265 933.449 464.473 933.713 464.526C933.977 464.578 934.188 465.159 934.241 465.898L942.846 467.429L952.401 492.981L978.692 500.477L986.136 486.382L1020.35 493.984L1039.61 533.525L1075.25 545.562L1103.18 511.352L1156.6 523.072L1216.73 611.13L1291.17 638.898C1291.64 636.998 1293.33 636.1 1295.34 636.84C1297.77 637.737 1299.77 640.693 1299.77 643.439C1299.77 646.184 1297.82 647.662 1295.39 646.712C1293.39 645.92 1291.7 643.755 1291.17 641.485L1216.31 613.136Z" fill="url(#paint9_linear)" fill-opacity="0.55"/>
<path d="M907.845 465.898C908.056 465.951 908.214 466.479 908.267 467.112L942.212 474.292L951.715 500.055L979.853 509.029L987.35 495.145L1019.03 503.222L1038.14 543.186L1077.47 557.757L1105.76 524.339L1153.75 536.481L1212.93 625.542C1213.3 623.958 1214.52 623.166 1215.99 623.747C1217.79 624.486 1219.27 626.967 1219.27 629.343C1219.27 631.719 1217.84 632.986 1216.05 632.247C1214.57 631.613 1213.3 629.818 1212.93 627.865L1212.4 627.654L1153.28 538.276L1106.13 526.134L1077.89 559.34L1077.78 559.499L1037.87 544.559L1018.81 504.542L987.508 496.412L980.012 510.296L951.557 501.005L942.054 475.19L908.267 467.904C908.214 468.538 908.056 469.013 907.845 468.96C907.634 468.907 907.422 468.168 907.422 467.323C907.422 466.479 907.581 465.845 907.845 465.898Z" fill="url(#paint10_linear)" fill-opacity="0.55"/>
<path d="M907.845 465.898C908.056 465.951 908.214 466.479 908.267 467.112L942.212 474.292L951.715 500.055L979.853 509.029L987.35 495.145L1019.03 503.222L1038.14 543.186L1077.47 557.757L1105.76 524.339L1153.75 536.481L1212.93 625.542C1213.3 623.958 1214.52 623.166 1215.99 623.747C1217.79 624.486 1219.27 626.967 1219.27 629.343C1219.27 631.719 1217.84 632.986 1216.05 632.247C1214.57 631.613 1213.3 629.818 1212.93 627.865L1212.4 627.654L1153.28 538.276L1106.13 526.134L1077.89 559.34L1077.78 559.499L1037.87 544.559L1018.81 504.542L987.508 496.412L980.012 510.296L951.557 501.005L942.054 475.19L908.267 467.904C908.214 468.538 908.056 469.013 907.845 468.96C907.634 468.907 907.422 468.168 907.422 467.323C907.422 466.479 907.581 465.845 907.845 465.898Z" fill="url(#paint11_linear)" fill-opacity="0.55"/>
<path d="M907.686 434.434C907.897 434.434 908.056 434.909 908.109 435.595L917.77 435.912L921.307 425.67L969.453 424.562L971.301 420.338C971.143 419.494 971.195 418.491 971.512 417.857C971.829 417.065 972.357 417.171 972.621 418.068C972.885 418.966 972.885 420.286 972.515 421.078C972.251 421.711 971.829 421.764 971.565 421.236L969.612 425.723L921.36 426.568L918.086 435.912L961.798 437.338L965.969 446.999L984.605 448.371L990.306 436.598L1017.81 437.285L1028.32 456.924L1033.65 457.399L1053.18 424.403L1093.67 423.717C1093.88 422.345 1094.57 421.342 1095.42 421.342C1096.42 421.342 1097.26 422.714 1097.26 424.509C1097.26 426.304 1096.47 427.729 1095.42 427.729C1094.57 427.729 1093.88 426.726 1093.67 425.407L1053.45 425.934L1034.7 457.504L1063.42 460.144L1077.26 439.027L1184.42 441.825L1210.24 472.708C1211.4 471.758 1212.98 471.917 1214.09 473.289C1215.47 474.926 1215.68 477.618 1214.52 479.307C1213.35 480.997 1211.35 480.997 1210.03 479.36C1208.92 477.988 1208.6 475.929 1209.18 474.345L1183.9 443.937L1087.87 440.98L1100.38 459.985L1147.15 463.787L1184 513.675L1227.71 521.805L1233.57 529.143C1234.84 528.299 1236.58 528.668 1237.8 530.252C1239.33 532.153 1239.54 535.003 1238.27 536.587C1237 538.171 1234.79 537.96 1233.31 536.059C1232.09 534.475 1231.73 532.311 1232.36 530.674L1227.03 523.97L1183.47 515.681L1146.73 465.634L1100.06 461.622L1086.44 440.875L1077.62 440.611L1069.71 452.647L1080.48 470.227L1119.33 474.715C1119.54 473.289 1120.39 472.339 1121.34 472.444C1122.5 472.55 1123.45 474.239 1123.45 476.14C1123.45 478.04 1122.5 479.466 1121.34 479.307C1120.39 479.202 1119.54 478.04 1119.33 476.562L1080.16 471.864L1069.07 453.65L1063.79 461.675L1028.16 458.243L1017.71 438.552L1001.71 438.077L1017.76 469.963L1048.06 474.239L1056.3 489.18C1056.82 488.546 1057.56 488.704 1058.09 489.655C1058.73 490.763 1058.83 492.611 1058.3 493.72C1057.77 494.828 1056.88 494.776 1056.24 493.667C1055.72 492.717 1055.61 491.344 1055.82 490.235L1047.8 475.718L1017.55 471.336L1000.81 438.077L990.517 437.76L984.816 449.48L965.863 448.002L961.693 438.341L924.421 436.968L927.853 446.471L946.858 448.107C946.911 447.315 947.175 446.735 947.492 446.787C947.861 446.84 948.125 447.685 948.125 448.741C948.125 449.797 947.861 450.588 947.492 450.588C947.175 450.536 946.964 449.955 946.858 449.163L927.747 447.474L923.999 437.074L908.056 436.493C908.003 437.126 907.845 437.602 907.634 437.602C907.422 437.602 907.211 436.915 907.211 436.018C907.264 435.12 907.422 434.434 907.686 434.434Z" fill="url(#paint12_linear)" fill-opacity="0.55"/>
<path d="M907.686 434.434C907.897 434.434 908.056 434.909 908.109 435.595L917.77 435.912L921.307 425.67L969.453 424.562L971.301 420.338C971.143 419.494 971.195 418.491 971.512 417.857C971.829 417.065 972.357 417.171 972.621 418.068C972.885 418.966 972.885 420.286 972.515 421.078C972.251 421.711 971.829 421.764 971.565 421.236L969.612 425.723L921.36 426.568L918.086 435.912L961.798 437.338L965.969 446.999L984.605 448.371L990.306 436.598L1017.81 437.285L1028.32 456.924L1033.65 457.399L1053.18 424.403L1093.67 423.717C1093.88 422.345 1094.57 421.342 1095.42 421.342C1096.42 421.342 1097.26 422.714 1097.26 424.509C1097.26 426.304 1096.47 427.729 1095.42 427.729C1094.57 427.729 1093.88 426.726 1093.67 425.407L1053.45 425.934L1034.7 457.504L1063.42 460.144L1077.26 439.027L1184.42 441.825L1210.24 472.708C1211.4 471.758 1212.98 471.917 1214.09 473.289C1215.47 474.926 1215.68 477.618 1214.52 479.307C1213.35 480.997 1211.35 480.997 1210.03 479.36C1208.92 477.988 1208.6 475.929 1209.18 474.345L1183.9 443.937L1087.87 440.98L1100.38 459.985L1147.15 463.787L1184 513.675L1227.71 521.805L1233.57 529.143C1234.84 528.299 1236.58 528.668 1237.8 530.252C1239.33 532.153 1239.54 535.003 1238.27 536.587C1237 538.171 1234.79 537.96 1233.31 536.059C1232.09 534.475 1231.73 532.311 1232.36 530.674L1227.03 523.97L1183.47 515.681L1146.73 465.634L1100.06 461.622L1086.44 440.875L1077.62 440.611L1069.71 452.647L1080.48 470.227L1119.33 474.715C1119.54 473.289 1120.39 472.339 1121.34 472.444C1122.5 472.55 1123.45 474.239 1123.45 476.14C1123.45 478.04 1122.5 479.466 1121.34 479.307C1120.39 479.202 1119.54 478.04 1119.33 476.562L1080.16 471.864L1069.07 453.65L1063.79 461.675L1028.16 458.243L1017.71 438.552L1001.71 438.077L1017.76 469.963L1048.06 474.239L1056.3 489.18C1056.82 488.546 1057.56 488.704 1058.09 489.655C1058.73 490.763 1058.83 492.611 1058.3 493.72C1057.77 494.828 1056.88 494.776 1056.24 493.667C1055.72 492.717 1055.61 491.344 1055.82 490.235L1047.8 475.718L1017.55 471.336L1000.81 438.077L990.517 437.76L984.816 449.48L965.863 448.002L961.693 438.341L924.421 436.968L927.853 446.471L946.858 448.107C946.911 447.315 947.175 446.735 947.492 446.787C947.861 446.84 948.125 447.685 948.125 448.741C948.125 449.797 947.861 450.588 947.492 450.588C947.175 450.536 946.964 449.955 946.858 449.163L927.747 447.474L923.999 437.074L908.056 436.493C908.003 437.126 907.845 437.602 907.634 437.602C907.422 437.602 907.211 436.915 907.211 436.018C907.264 435.12 907.422 434.434 907.686 434.434Z" fill="url(#paint13_linear)" fill-opacity="0.55"/>
<path d="M907.581 417.752C907.792 417.752 907.95 418.227 908.003 418.86L961.587 415.482L965.652 405.715L984.552 403.762L990.412 415.376L1017.55 413.845L1027.84 393.889L1063.42 389.561L1077.47 410.255L1183.74 404.184L1213.46 367.229L1213.72 366.913L1236.95 363.851C1237.37 361.897 1238.69 360.366 1240.33 360.102C1242.34 359.838 1243.97 361.633 1243.97 364.115C1243.97 366.596 1242.39 368.813 1240.38 369.077C1238.75 369.288 1237.37 368.074 1236.95 366.226L1214.3 369.077L1184.48 405.979L1184.26 406.243L1077.15 411.892L1063.11 391.091L1051.23 392.464L1031.48 428.046L1031.38 428.204L1004.03 428.468C1003.93 429.471 1003.5 430.211 1003.08 430.211C1002.5 430.211 1002.08 429.155 1002.03 427.835C1002.03 426.515 1002.45 425.459 1003.03 425.459C1003.5 425.459 1003.87 426.198 1004.03 427.201L1031.11 426.832L1050.01 392.622L1028 395.209L1017.71 415.112L990.253 416.537L984.393 404.923L965.81 406.771L961.745 416.537L908.003 419.652C907.95 420.286 907.792 420.814 907.581 420.814C907.369 420.814 907.158 420.127 907.158 419.283C907.158 418.438 907.369 417.752 907.581 417.752Z" fill="url(#paint14_linear)" fill-opacity="0.55"/>
<path d="M907.581 417.752C907.792 417.752 907.95 418.227 908.003 418.86L961.587 415.482L965.652 405.715L984.552 403.762L990.412 415.376L1017.55 413.845L1027.84 393.889L1063.42 389.561L1077.47 410.255L1183.74 404.184L1213.46 367.229L1213.72 366.913L1236.95 363.851C1237.37 361.897 1238.69 360.366 1240.33 360.102C1242.34 359.838 1243.97 361.633 1243.97 364.115C1243.97 366.596 1242.39 368.813 1240.38 369.077C1238.75 369.288 1237.37 368.074 1236.95 366.226L1214.3 369.077L1184.48 405.979L1184.26 406.243L1077.15 411.892L1063.11 391.091L1051.23 392.464L1031.48 428.046L1031.38 428.204L1004.03 428.468C1003.93 429.471 1003.5 430.211 1003.08 430.211C1002.5 430.211 1002.08 429.155 1002.03 427.835C1002.03 426.515 1002.45 425.459 1003.03 425.459C1003.5 425.459 1003.87 426.198 1004.03 427.201L1031.11 426.832L1050.01 392.622L1028 395.209L1017.71 415.112L990.253 416.537L984.393 404.923L965.81 406.771L961.745 416.537L908.003 419.652C907.95 420.286 907.792 420.814 907.581 420.814C907.369 420.814 907.158 420.127 907.158 419.283C907.158 418.438 907.369 417.752 907.581 417.752Z" fill="url(#paint15_linear)" fill-opacity="0.55"/>
</mask>
<g mask="url(#mask0)">
<rect x="920" y="189" width="387" height="483" fill="url(#paint16_linear)"/>
</g>
<mask id="mask1" mask-type="alpha" maskUnits="userSpaceOnUse" x="-126" y="0" width="460" height="488">
<path d="M-120.457 11.5253C-117.923 12.5811 -115.864 11.6836 -115.231 9.67754L-28.4928 46.0514L43.6743 148.468L112.463 166.629L144.56 132.103L180.723 145.934L202.051 189.224L202.157 189.435L242.912 200.258L251.201 186.004L277.808 194.82L287.944 222.008L287.997 222.114L332.184 231.933C332.237 232.619 332.395 233.094 332.606 233.147C332.818 233.2 333.029 232.567 333.029 231.722C333.029 230.877 332.87 230.138 332.606 230.085C332.395 230.033 332.237 230.508 332.184 231.141L288.103 221.111L277.914 193.764L250.99 184.737L242.701 198.991L202.368 188.063L181.093 144.773L180.987 144.562L144.138 130.308L111.935 164.729L44.1494 146.515L-27.7009 43.8341L-115.178 6.77396C-115.811 4.18714 -117.87 1.54753 -120.404 0.491681C-123.466 -0.828126 -125.947 0.597265 -126 3.71201C-126 6.77396 -123.519 10.311 -120.457 11.5253Z" fill="url(#paint17_linear)" fill-opacity="0.55"/>
<path d="M-120.457 11.5253C-117.923 12.5811 -115.864 11.6836 -115.231 9.67754L-28.4928 46.0514L43.6743 148.468L112.463 166.629L144.56 132.103L180.723 145.934L202.051 189.224L202.157 189.435L242.912 200.258L251.201 186.004L277.808 194.82L287.944 222.008L287.997 222.114L332.184 231.933C332.237 232.619 332.395 233.094 332.606 233.147C332.818 233.2 333.029 232.567 333.029 231.722C333.029 230.877 332.87 230.138 332.606 230.085C332.395 230.033 332.237 230.508 332.184 231.141L288.103 221.111L277.914 193.764L250.99 184.737L242.701 198.991L202.368 188.063L181.093 144.773L180.987 144.562L144.138 130.308L111.935 164.729L44.1494 146.515L-27.7009 43.8341L-115.178 6.77396C-115.811 4.18714 -117.87 1.54753 -120.404 0.491681C-123.466 -0.828126 -125.947 0.597265 -126 3.71201C-126 6.77396 -123.519 10.311 -120.457 11.5253Z" fill="url(#paint18_linear)" fill-opacity="0.55"/>
<path d="M-38.7872 60.0414L35.9666 162.194L117.689 181.041L148.995 145.776L176.922 155.543L198.831 198.832L245.288 209.655L253.418 195.242L275.908 201.947L286.255 229.135L303.835 232.461C303.888 233.253 304.099 233.834 304.363 233.886C304.679 233.939 304.943 233.2 304.943 232.197C304.943 231.194 304.679 230.349 304.363 230.296C304.099 230.244 303.888 230.772 303.782 231.511L286.36 228.132L276.013 200.891L253.207 193.975L245.077 208.388L199.042 197.407L177.186 154.064L148.625 143.981L117.267 179.088L36.5474 160.083L-37.9425 57.7713L-73.0494 44.0453C-73.5773 41.6697 -75.3723 39.3468 -77.5895 38.5021C-80.2292 37.4463 -82.3936 38.9245 -82.4464 41.7752C-82.4464 44.626 -80.3347 47.7936 -77.6424 48.7966C-75.4779 49.6413 -73.6301 48.691 -73.1022 46.7377L-38.7872 60.0414Z" fill="url(#paint19_linear)" fill-opacity="0.55"/>
<path d="M-38.7872 60.0414L35.9666 162.194L117.689 181.041L148.995 145.776L176.922 155.543L198.831 198.832L245.288 209.655L253.418 195.242L275.908 201.947L286.255 229.135L303.835 232.461C303.888 233.253 304.099 233.834 304.363 233.886C304.679 233.939 304.943 233.2 304.943 232.197C304.943 231.194 304.679 230.349 304.363 230.296C304.099 230.244 303.888 230.772 303.782 231.511L286.36 228.132L276.013 200.891L253.207 193.975L245.077 208.388L199.042 197.407L177.186 154.064L148.625 143.981L117.267 179.088L36.5474 160.083L-37.9425 57.7713L-73.0494 44.0453C-73.5773 41.6697 -75.3723 39.3468 -77.5895 38.5021C-80.2292 37.4463 -82.3936 38.9245 -82.4464 41.7752C-82.4464 44.626 -80.3347 47.7936 -77.6424 48.7966C-75.4779 49.6413 -73.6301 48.691 -73.1022 46.7377L-38.7872 60.0414Z" fill="url(#paint20_linear)" fill-opacity="0.55"/>
<path d="M332.554 241.752C332.343 241.7 332.184 242.175 332.131 242.808L285.516 235.365L275.063 208.388L254.316 202.792L246.238 217.415L197.353 207.385L175.338 164.728L175.233 164.517L150.79 156.704L119.854 192.708L32.6408 175.129L-36.7283 82.9004C-35.9892 81.2638 -36.3588 78.7826 -37.7841 76.8293C-39.5263 74.5064 -42.1659 73.8201 -43.6969 75.2983C-45.2279 76.8293 -45.0167 79.9968 -43.2217 82.3197C-41.7436 84.273 -39.6847 85.0121 -38.1537 84.3258L32.0073 177.187L120.223 194.556L151.107 158.446L160.82 161.508L115.63 216.148L74.5578 210.394C74.2411 208.757 73.238 207.385 72.0766 207.226C70.5984 207.015 69.437 208.546 69.3842 210.711C69.3842 212.822 70.5456 214.723 72.0238 214.934C73.238 215.092 74.2411 214.036 74.5578 212.453L116.053 218.049L162.193 161.983L174.916 165.995L197.089 208.81L215.936 212.558L209.864 222.325L178.928 217.257L167.947 197.512C168.264 196.404 168.106 194.873 167.525 193.87C166.839 192.656 165.836 192.603 165.255 193.711C164.674 194.873 164.727 196.773 165.413 197.988C165.994 198.991 166.786 199.202 167.367 198.568L178.611 218.682L210.076 223.697L216.886 212.717L246.344 218.629L254.421 203.953L271.104 208.388L258.222 233.675L234.413 230.138L231.087 236.104C230.717 235.47 230.189 235.417 229.82 236.104C229.345 236.895 229.292 238.479 229.662 239.535C230.031 240.591 230.717 240.802 231.14 240.01C231.509 239.324 231.615 238.163 231.457 237.159L234.624 231.511L258.381 234.942L271.737 208.652L274.852 209.496L285.305 236.473L314.288 240.961L312.281 246.029L282.718 242.228L274.957 222.589L273.321 222.272C273.215 221.375 272.951 220.688 272.582 220.583C272.159 220.477 271.79 221.322 271.79 222.483C271.79 223.645 272.107 224.648 272.529 224.7C272.898 224.753 273.162 224.173 273.268 223.328L274.746 223.645L282.507 243.231L312.334 246.926L314.657 240.961L332.131 243.653C332.184 244.339 332.343 244.814 332.554 244.867C332.765 244.92 332.976 244.234 332.976 243.389C332.976 242.491 332.765 241.805 332.554 241.752Z" fill="url(#paint21_linear)" fill-opacity="0.55"/>
<path d="M332.554 241.752C332.343 241.7 332.184 242.175 332.131 242.808L285.516 235.365L275.063 208.388L254.316 202.792L246.238 217.415L197.353 207.385L175.338 164.728L175.233 164.517L150.79 156.704L119.854 192.708L32.6408 175.129L-36.7283 82.9004C-35.9892 81.2638 -36.3588 78.7826 -37.7841 76.8293C-39.5263 74.5064 -42.1659 73.8201 -43.6969 75.2983C-45.2279 76.8293 -45.0167 79.9968 -43.2217 82.3197C-41.7436 84.273 -39.6847 85.0121 -38.1537 84.3258L32.0073 177.187L120.223 194.556L151.107 158.446L160.82 161.508L115.63 216.148L74.5578 210.394C74.2411 208.757 73.238 207.385 72.0766 207.226C70.5984 207.015 69.437 208.546 69.3842 210.711C69.3842 212.822 70.5456 214.723 72.0238 214.934C73.238 215.092 74.2411 214.036 74.5578 212.453L116.053 218.049L162.193 161.983L174.916 165.995L197.089 208.81L215.936 212.558L209.864 222.325L178.928 217.257L167.947 197.512C168.264 196.404 168.106 194.873 167.525 193.87C166.839 192.656 165.836 192.603 165.255 193.711C164.674 194.873 164.727 196.773 165.413 197.988C165.994 198.991 166.786 199.202 167.367 198.568L178.611 218.682L210.076 223.697L216.886 212.717L246.344 218.629L254.421 203.953L271.104 208.388L258.222 233.675L234.413 230.138L231.087 236.104C230.717 235.47 230.189 235.417 229.82 236.104C229.345 236.895 229.292 238.479 229.662 239.535C230.031 240.591 230.717 240.802 231.14 240.01C231.509 239.324 231.615 238.163 231.457 237.159L234.624 231.511L258.381 234.942L271.737 208.652L274.852 209.496L285.305 236.473L314.288 240.961L312.281 246.029L282.718 242.228L274.957 222.589L273.321 222.272C273.215 221.375 272.951 220.688 272.582 220.583C272.159 220.477 271.79 221.322 271.79 222.483C271.79 223.645 272.107 224.648 272.529 224.7C272.898 224.753 273.162 224.173 273.268 223.328L274.746 223.645L282.507 243.231L312.334 246.926L314.657 240.961L332.131 243.653C332.184 244.339 332.343 244.814 332.554 244.867C332.765 244.92 332.976 244.234 332.976 243.389C332.976 242.491 332.765 241.805 332.554 241.752Z" fill="url(#paint22_linear)" fill-opacity="0.55"/>
<path d="M332.237 295.178C332.026 295.231 331.868 295.706 331.815 296.392L295.599 301.619L291.745 311.649L276.911 314.447L271.896 303.731C272.054 302.886 272.001 301.883 271.684 301.302C271.368 300.616 270.892 300.774 270.576 301.672C270.312 302.569 270.312 303.889 270.681 304.575C270.945 305.156 271.315 305.103 271.632 304.575L276.752 315.503L291.323 312.705L285.885 327.012L263.396 332.714L256.111 318.46L237.528 321.997L244.919 306.212L253.893 304.998C253.999 305.948 254.316 306.581 254.738 306.529C255.213 306.476 255.635 305.42 255.635 304.206C255.635 302.992 255.266 302.041 254.738 302.094C254.316 302.147 253.999 302.886 253.893 303.836L244.707 305.05L236.683 322.155V322.208L216.728 325.956L206.855 345.7L169.267 355.045L153.43 333.875C153.746 332.555 153.588 331.077 153.007 330.285C152.268 329.282 151.16 329.652 150.526 331.077C149.893 332.502 149.998 334.456 150.737 335.459C151.371 336.251 152.215 336.145 152.849 335.248L169.003 356.681L206.116 347.284L197.089 365.286L168.739 373.892L141.446 339.049L76.9864 351.032L14.9026 438.72L-3.36349 444.95C-3.78583 443.208 -5.15842 442.258 -6.84775 442.838C-8.90665 443.525 -10.5432 446.111 -10.596 448.645C-10.596 451.179 -8.95947 452.605 -6.90057 451.919C-5.21121 451.338 -3.83862 449.437 -3.36349 447.378L15.589 440.832L77.5143 353.039L141.129 340.896L168.475 375.634L197.353 366.712L216.992 327.276L255.952 319.727L263.29 333.928L286.097 328.068L295.705 302.622L331.815 297.184C331.868 297.818 332.026 298.293 332.237 298.24C332.448 298.187 332.659 297.501 332.659 296.656C332.659 295.812 332.501 295.178 332.237 295.178Z" fill="url(#paint23_linear)" fill-opacity="0.55"/>
<path d="M332.237 295.178C332.026 295.231 331.868 295.706 331.815 296.392L295.599 301.619L291.745 311.649L276.911 314.447L271.896 303.731C272.054 302.886 272.001 301.883 271.684 301.302C271.368 300.616 270.892 300.774 270.576 301.672C270.312 302.569 270.312 303.889 270.681 304.575C270.945 305.156 271.315 305.103 271.632 304.575L276.752 315.503L291.323 312.705L285.885 327.012L263.396 332.714L256.111 318.46L237.528 321.997L244.919 306.212L253.893 304.998C253.999 305.948 254.316 306.581 254.738 306.529C255.213 306.476 255.635 305.42 255.635 304.206C255.635 302.992 255.266 302.041 254.738 302.094C254.316 302.147 253.999 302.886 253.893 303.836L244.707 305.05L236.683 322.155V322.208L216.728 325.956L206.855 345.7L169.267 355.045L153.43 333.875C153.746 332.555 153.588 331.077 153.007 330.285C152.268 329.282 151.16 329.652 150.526 331.077C149.893 332.502 149.998 334.456 150.737 335.459C151.371 336.251 152.215 336.145 152.849 335.248L169.003 356.681L206.116 347.284L197.089 365.286L168.739 373.892L141.446 339.049L76.9864 351.032L14.9026 438.72L-3.36349 444.95C-3.78583 443.208 -5.15842 442.258 -6.84775 442.838C-8.90665 443.525 -10.5432 446.111 -10.596 448.645C-10.596 451.179 -8.95947 452.605 -6.90057 451.919C-5.21121 451.338 -3.83862 449.437 -3.36349 447.378L15.589 440.832L77.5143 353.039L141.129 340.896L168.475 375.634L197.353 366.712L216.992 327.276L255.952 319.727L263.29 333.928L286.097 328.068L295.705 302.622L331.815 297.184C331.868 297.818 332.026 298.293 332.237 298.24C332.448 298.187 332.659 297.501 332.659 296.656C332.659 295.812 332.501 295.178 332.237 295.178Z" fill="url(#paint24_linear)" fill-opacity="0.55"/>
<path d="M23.7187 454.136L83.7435 365.973L136.325 354.147L164.357 388.251L200.573 375.845L219.842 336.251L253.682 328.543L261.126 342.586L287.68 334.878L297.236 309.274L305.735 307.848C305.788 308.588 305.999 309.115 306.263 309.063C306.58 309.01 306.844 308.165 306.844 307.215C306.844 306.265 306.58 305.473 306.316 305.526C306.052 305.578 305.841 306.159 305.788 306.898L297.183 308.429L287.627 333.981L261.337 341.477L253.893 327.382L219.684 334.984L200.414 374.525L164.78 386.562L136.853 352.352L83.4268 364.072L23.2964 452.13L-51.1407 479.898C-51.6159 477.998 -53.3052 477.1 -55.3113 477.84C-57.7398 478.737 -59.7459 481.693 -59.7459 484.439C-59.7459 487.184 -57.7926 488.662 -55.3641 487.712C-53.358 486.92 -51.6687 484.755 -51.1407 482.485L23.7187 454.136Z" fill="url(#paint25_linear)" fill-opacity="0.55"/>
<path d="M23.7187 454.136L83.7435 365.973L136.325 354.147L164.357 388.251L200.573 375.845L219.842 336.251L253.682 328.543L261.126 342.586L287.68 334.878L297.236 309.274L305.735 307.848C305.788 308.588 305.999 309.115 306.263 309.063C306.58 309.01 306.844 308.165 306.844 307.215C306.844 306.265 306.58 305.473 306.316 305.526C306.052 305.578 305.841 306.159 305.788 306.898L297.183 308.429L287.627 333.981L261.337 341.477L253.893 327.382L219.684 334.984L200.414 374.525L164.78 386.562L136.853 352.352L83.4268 364.072L23.2964 452.13L-51.1407 479.898C-51.6159 477.998 -53.3052 477.1 -55.3113 477.84C-57.7398 478.737 -59.7459 481.693 -59.7459 484.439C-59.7459 487.184 -57.7926 488.662 -55.3641 487.712C-53.358 486.92 -51.6687 484.755 -51.1407 482.485L23.7187 454.136Z" fill="url(#paint26_linear)" fill-opacity="0.55"/>
<path d="M332.184 306.898C331.973 306.951 331.815 307.479 331.762 308.112L297.816 315.292L288.314 341.055L260.175 350.029L252.679 336.145L221.004 344.222L201.893 384.186L162.562 398.757L134.266 365.339L86.2776 377.481L27.0975 466.542C26.7279 464.958 25.5137 464.166 24.0355 464.747C22.2406 465.486 20.7624 467.967 20.7624 470.343C20.7624 472.719 22.1878 473.986 23.9827 473.247C25.4609 472.613 26.7279 470.818 27.0975 468.865L27.6254 468.654L86.7528 379.276L133.896 367.134L162.14 400.341L162.246 400.499L202.157 385.559L221.215 345.542L252.521 337.412L260.017 351.296L288.472 342.005L297.975 316.19L331.762 308.904C331.815 309.538 331.973 310.013 332.184 309.96C332.395 309.907 332.606 309.168 332.606 308.324C332.606 307.479 332.448 306.845 332.184 306.898Z" fill="url(#paint27_linear)" fill-opacity="0.55"/>
<path d="M332.184 306.898C331.973 306.951 331.815 307.479 331.762 308.112L297.816 315.292L288.314 341.055L260.175 350.029L252.679 336.145L221.004 344.222L201.893 384.186L162.562 398.757L134.266 365.339L86.2776 377.481L27.0975 466.542C26.7279 464.958 25.5137 464.166 24.0355 464.747C22.2406 465.486 20.7624 467.967 20.7624 470.343C20.7624 472.719 22.1878 473.986 23.9827 473.247C25.4609 472.613 26.7279 470.818 27.0975 468.865L27.6254 468.654L86.7528 379.276L133.896 367.134L162.14 400.341L162.246 400.499L202.157 385.559L221.215 345.542L252.521 337.412L260.017 351.296L288.472 342.005L297.975 316.19L331.762 308.904C331.815 309.538 331.973 310.013 332.184 309.96C332.395 309.907 332.606 309.168 332.606 308.324C332.606 307.479 332.448 306.845 332.184 306.898Z" fill="url(#paint28_linear)" fill-opacity="0.55"/>
<path d="M332.342 275.434C332.131 275.434 331.973 275.909 331.92 276.595L322.259 276.912L318.722 266.67L270.576 265.562L268.728 261.338C268.886 260.494 268.833 259.491 268.517 258.857C268.2 258.065 267.672 258.171 267.408 259.068C267.144 259.966 267.144 261.286 267.514 262.077C267.778 262.711 268.2 262.764 268.464 262.236L270.417 266.723L318.669 267.568L321.942 276.912L278.23 278.338L274.06 287.998L255.424 289.371L249.723 277.598L222.218 278.285L211.712 297.923L206.38 298.399L186.847 265.403L146.355 264.717C146.144 263.344 145.458 262.341 144.613 262.341C143.61 262.341 142.765 263.714 142.765 265.509C142.765 267.304 143.557 268.729 144.613 268.729C145.458 268.729 146.144 267.726 146.355 266.406L186.583 266.934L205.324 298.504L176.605 301.144L162.774 280.027L55.6053 282.825L29.7899 313.708C28.6285 312.758 27.0447 312.916 25.9361 314.289C24.5635 315.926 24.3523 318.618 25.5137 320.307C26.6752 321.997 28.6813 321.997 30.0011 320.36C31.1097 318.988 31.4265 316.929 30.8457 315.345L56.1333 284.937L152.162 281.98L139.651 300.985L92.8767 304.786L56.0277 354.675L12.3157 362.805L6.45569 370.143C5.18869 369.299 3.44653 369.668 2.23233 371.252C0.701355 373.152 0.490204 376.003 1.7572 377.587C3.02423 379.171 5.24149 378.96 6.71967 377.059C7.9339 375.475 8.30347 373.311 7.66995 371.674L13.002 364.97L56.5556 356.681L93.299 306.634L139.967 302.622L153.588 281.875L162.404 281.611L170.323 293.647L159.553 311.227L120.698 315.714C120.487 314.289 119.642 313.339 118.692 313.444C117.531 313.55 116.58 315.239 116.58 317.14C116.58 319.04 117.531 320.466 118.692 320.307C119.642 320.202 120.487 319.04 120.698 317.562L159.87 312.864L170.956 294.65L176.236 302.675L211.87 299.243L222.323 279.552L238.319 279.077L222.271 310.963L191.968 315.239L183.732 330.18C183.204 329.546 182.465 329.704 181.937 330.655C181.304 331.763 181.198 333.611 181.726 334.72C182.254 335.828 183.152 335.775 183.785 334.667C184.313 333.717 184.419 332.344 184.207 331.235L192.232 316.717L222.482 312.336L239.217 279.077L249.511 278.76L255.213 290.48L274.165 289.002L278.336 279.341L315.607 277.968L312.176 287.471L293.171 289.107C293.118 288.315 292.854 287.735 292.537 287.787C292.168 287.84 291.904 288.685 291.904 289.741C291.904 290.796 292.168 291.588 292.537 291.588C292.854 291.536 293.065 290.955 293.171 290.163L312.281 288.474L316.03 278.074L331.973 277.493C332.026 278.126 332.184 278.601 332.395 278.601C332.606 278.601 332.818 277.915 332.818 277.018C332.765 276.12 332.606 275.434 332.342 275.434Z" fill="url(#paint29_linear)" fill-opacity="0.55"/>
<path d="M332.342 275.434C332.131 275.434 331.973 275.909 331.92 276.595L322.259 276.912L318.722 266.67L270.576 265.562L268.728 261.338C268.886 260.494 268.833 259.491 268.517 258.857C268.2 258.065 267.672 258.171 267.408 259.068C267.144 259.966 267.144 261.286 267.514 262.077C267.778 262.711 268.2 262.764 268.464 262.236L270.417 266.723L318.669 267.568L321.942 276.912L278.23 278.338L274.06 287.998L255.424 289.371L249.723 277.598L222.218 278.285L211.712 297.923L206.38 298.399L186.847 265.403L146.355 264.717C146.144 263.344 145.458 262.341 144.613 262.341C143.61 262.341 142.765 263.714 142.765 265.509C142.765 267.304 143.557 268.729 144.613 268.729C145.458 268.729 146.144 267.726 146.355 266.406L186.583 266.934L205.324 298.504L176.605 301.144L162.774 280.027L55.6053 282.825L29.7899 313.708C28.6285 312.758 27.0447 312.916 25.9361 314.289C24.5635 315.926 24.3523 318.618 25.5137 320.307C26.6752 321.997 28.6813 321.997 30.0011 320.36C31.1097 318.988 31.4265 316.929 30.8457 315.345L56.1333 284.937L152.162 281.98L139.651 300.985L92.8767 304.786L56.0277 354.675L12.3157 362.805L6.45569 370.143C5.18869 369.299 3.44653 369.668 2.23233 371.252C0.701355 373.152 0.490204 376.003 1.7572 377.587C3.02423 379.171 5.24149 378.96 6.71967 377.059C7.9339 375.475 8.30347 373.311 7.66995 371.674L13.002 364.97L56.5556 356.681L93.299 306.634L139.967 302.622L153.588 281.875L162.404 281.611L170.323 293.647L159.553 311.227L120.698 315.714C120.487 314.289 119.642 313.339 118.692 313.444C117.531 313.55 116.58 315.239 116.58 317.14C116.58 319.04 117.531 320.466 118.692 320.307C119.642 320.202 120.487 319.04 120.698 317.562L159.87 312.864L170.956 294.65L176.236 302.675L211.87 299.243L222.323 279.552L238.319 279.077L222.271 310.963L191.968 315.239L183.732 330.18C183.204 329.546 182.465 329.704 181.937 330.655C181.304 331.763 181.198 333.611 181.726 334.72C182.254 335.828 183.152 335.775 183.785 334.667C184.313 333.717 184.419 332.344 184.207 331.235L192.232 316.717L222.482 312.336L239.217 279.077L249.511 278.76L255.213 290.48L274.165 289.002L278.336 279.341L315.607 277.968L312.176 287.471L293.171 289.107C293.118 288.315 292.854 287.735 292.537 287.787C292.168 287.84 291.904 288.685 291.904 289.741C291.904 290.796 292.168 291.588 292.537 291.588C292.854 291.536 293.065 290.955 293.171 290.163L312.281 288.474L316.03 278.074L331.973 277.493C332.026 278.126 332.184 278.601 332.395 278.601C332.606 278.601 332.818 277.915 332.818 277.018C332.765 276.12 332.606 275.434 332.342 275.434Z" fill="url(#paint30_linear)" fill-opacity="0.55"/>
<path d="M332.448 258.752C332.237 258.752 332.079 259.227 332.026 259.86L278.442 256.481L274.377 246.715L255.477 244.762L249.617 256.376L222.482 254.845L212.187 234.889L176.605 230.56L162.563 251.255L56.2918 245.184L26.5698 208.229L26.3058 207.913L3.07718 204.851C2.65485 202.897 1.33502 201.366 -0.301544 201.102C-2.30765 200.838 -3.94418 202.633 -3.94418 205.115C-3.94418 207.596 -2.36041 209.813 -0.354309 210.077C1.28226 210.288 2.65485 209.074 3.07718 207.226L25.7251 210.077L55.5527 246.979L55.7639 247.243L162.879 252.892L176.922 232.091L188.8 233.464L208.545 269.046L208.65 269.204L235.997 269.468C236.102 270.471 236.525 271.211 236.947 271.211C237.528 271.211 237.95 270.155 238.003 268.835C238.003 267.515 237.581 266.459 237 266.459C236.525 266.459 236.155 267.198 235.997 268.201L208.914 267.832L190.015 233.622L212.029 236.209L222.324 256.112L249.776 257.537L255.635 245.923L274.218 247.771L278.283 257.537L332.026 260.652C332.079 261.286 332.237 261.813 332.448 261.813C332.659 261.813 332.871 261.127 332.871 260.283C332.871 259.438 332.659 258.752 332.448 258.752Z" fill="url(#paint31_linear)" fill-opacity="0.55"/>
<path d="M332.448 258.752C332.237 258.752 332.079 259.227 332.026 259.86L278.442 256.481L274.377 246.715L255.477 244.762L249.617 256.376L222.482 254.845L212.187 234.889L176.605 230.56L162.563 251.255L56.2918 245.184L26.5698 208.229L26.3058 207.913L3.07718 204.851C2.65485 202.897 1.33502 201.366 -0.301544 201.102C-2.30765 200.838 -3.94418 202.633 -3.94418 205.115C-3.94418 207.596 -2.36041 209.813 -0.354309 210.077C1.28226 210.288 2.65485 209.074 3.07718 207.226L25.7251 210.077L55.5527 246.979L55.7639 247.243L162.879 252.892L176.922 232.091L188.8 233.464L208.545 269.046L208.65 269.204L235.997 269.468C236.102 270.471 236.525 271.211 236.947 271.211C237.528 271.211 237.95 270.155 238.003 268.835C238.003 267.515 237.581 266.459 237 266.459C236.525 266.459 236.155 267.198 235.997 268.201L208.914 267.832L190.015 233.622L212.029 236.209L222.324 256.112L249.776 257.537L255.635 245.923L274.218 247.771L278.283 257.537L332.026 260.652C332.079 261.286 332.237 261.813 332.448 261.813C332.659 261.813 332.871 261.127 332.871 260.283C332.871 259.438 332.659 258.752 332.448 258.752Z" fill="url(#paint32_linear)" fill-opacity="0.55"/>
</mask>
<g mask="url(#mask1)">
<rect width="387" height="483" transform="matrix(-1 0 0 1 320.029 30)" fill="url(#paint33_linear)"/>
</g>
<defs>
<linearGradient id="paint0_linear" x1="1136.51" y1="159" x2="1136.51" y2="392.15" gradientUnits="userSpaceOnUse">
<stop stop-color="white"/>
<stop offset="1" stop-color="white" stop-opacity="0"/>
</linearGradient>
<linearGradient id="paint1_linear" x1="1136.51" y1="159" x2="1136.51" y2="392.15" gradientUnits="userSpaceOnUse">
<stop stop-color="#FD8424"/>
<stop offset="1" stop-color="white" stop-opacity="0"/>
</linearGradient>
<linearGradient id="paint2_linear" x1="1128.78" y1="197.161" x2="1128.78" y2="392.889" gradientUnits="userSpaceOnUse">
<stop stop-color="white"/>
<stop offset="1" stop-color="white" stop-opacity="0"/>
</linearGradient>
<linearGradient id="paint3_linear" x1="1128.78" y1="197.161" x2="1128.78" y2="392.889" gradientUnits="userSpaceOnUse">
<stop stop-color="#FD8424"/>
<stop offset="1" stop-color="white" stop-opacity="0"/>
</linearGradient>
<linearGradient id="paint4_linear" x1="1095.9" y1="233.519" x2="1095.9" y2="405.926" gradientUnits="userSpaceOnUse">
<stop stop-color="white"/>
<stop offset="1" stop-color="white" stop-opacity="0"/>
</linearGradient>
<linearGradient id="paint5_linear" x1="1095.9" y1="233.519" x2="1095.9" y2="405.926" gradientUnits="userSpaceOnUse">
<stop stop-color="#FD8424"/>
<stop offset="1" stop-color="white" stop-opacity="0"/>
</linearGradient>
<linearGradient id="paint6_linear" x1="1079" y1="454.178" x2="1079" y2="611.09" gradientUnits="userSpaceOnUse">
<stop stop-color="white"/>
<stop offset="1" stop-color="white" stop-opacity="0"/>
</linearGradient>
<linearGradient id="paint7_linear" x1="1079" y1="454.178" x2="1079" y2="611.09" gradientUnits="userSpaceOnUse">
<stop stop-color="#FD8424"/>
<stop offset="1" stop-color="white" stop-opacity="0"/>
</linearGradient>
<linearGradient id="paint8_linear" x1="1116.48" y1="464.523" x2="1116.48" y2="647" gradientUnits="userSpaceOnUse">
<stop stop-color="white"/>
<stop offset="1" stop-color="white" stop-opacity="0"/>
</linearGradient>
<linearGradient id="paint9_linear" x1="1116.48" y1="464.523" x2="1116.48" y2="647" gradientUnits="userSpaceOnUse">
<stop stop-color="#FD8424"/>
<stop offset="1" stop-color="white" stop-opacity="0"/>
</linearGradient>
<linearGradient id="paint10_linear" x1="1063.34" y1="465.895" x2="1063.34" y2="632.457" gradientUnits="userSpaceOnUse">
<stop stop-color="white"/>
<stop offset="1" stop-color="white" stop-opacity="0"/>
</linearGradient>
<linearGradient id="paint11_linear" x1="1063.34" y1="465.895" x2="1063.34" y2="632.457" gradientUnits="userSpaceOnUse">
<stop stop-color="#FD8424"/>
<stop offset="1" stop-color="white" stop-opacity="0"/>
</linearGradient>
<linearGradient id="paint12_linear" x1="1073.16" y1="417.324" x2="1073.16" y2="537.644" gradientUnits="userSpaceOnUse">
<stop stop-color="white"/>
<stop offset="1" stop-color="white" stop-opacity="0"/>
</linearGradient>
<linearGradient id="paint13_linear" x1="1073.16" y1="417.324" x2="1073.16" y2="537.644" gradientUnits="userSpaceOnUse">
<stop stop-color="#FD8424"/>
<stop offset="1" stop-color="white" stop-opacity="0"/>
</linearGradient>
<linearGradient id="paint14_linear" x1="1075.57" y1="360.077" x2="1075.57" y2="430.211" gradientUnits="userSpaceOnUse">
<stop stop-color="white"/>
<stop offset="1" stop-color="white" stop-opacity="0"/>
</linearGradient>
<linearGradient id="paint15_linear" x1="1075.57" y1="360.077" x2="1075.57" y2="430.211" gradientUnits="userSpaceOnUse">
<stop stop-color="#FD8424"/>
<stop offset="1" stop-color="white" stop-opacity="0"/>
</linearGradient>
<linearGradient id="paint16_linear" x1="1206.94" y1="464.5" x2="553.215" y2="344.123" gradientUnits="userSpaceOnUse">
<stop stop-color="#FD8424"/>
<stop offset="1" stop-color="white" stop-opacity="0"/>
</linearGradient>
<linearGradient id="paint17_linear" x1="103.514" y1="0" x2="103.514" y2="233.15" gradientUnits="userSpaceOnUse">
<stop stop-color="white"/>
<stop offset="1" stop-color="white" stop-opacity="0"/>
</linearGradient>
<linearGradient id="paint18_linear" x1="103.514" y1="0" x2="103.514" y2="233.15" gradientUnits="userSpaceOnUse">
<stop stop-color="#FD8424"/>
<stop offset="1" stop-color="white" stop-opacity="0"/>
</linearGradient>
<linearGradient id="paint19_linear" x1="111.248" y1="38.1608" x2="111.248" y2="233.889" gradientUnits="userSpaceOnUse">
<stop stop-color="white"/>
<stop offset="1" stop-color="white" stop-opacity="0"/>
</linearGradient>
<linearGradient id="paint20_linear" x1="111.248" y1="38.1608" x2="111.248" y2="233.889" gradientUnits="userSpaceOnUse">
<stop stop-color="#FD8424"/>
<stop offset="1" stop-color="white" stop-opacity="0"/>
</linearGradient>
<linearGradient id="paint21_linear" x1="144.128" y1="74.5187" x2="144.128" y2="246.926" gradientUnits="userSpaceOnUse">
<stop stop-color="white"/>
<stop offset="1" stop-color="white" stop-opacity="0"/>
</linearGradient>
<linearGradient id="paint22_linear" x1="144.128" y1="74.5187" x2="144.128" y2="246.926" gradientUnits="userSpaceOnUse">
<stop stop-color="#FD8424"/>
<stop offset="1" stop-color="white" stop-opacity="0"/>
</linearGradient>
<linearGradient id="paint23_linear" x1="161.032" y1="295.178" x2="161.032" y2="452.09" gradientUnits="userSpaceOnUse">
<stop stop-color="white"/>
<stop offset="1" stop-color="white" stop-opacity="0"/>
</linearGradient>
<linearGradient id="paint24_linear" x1="161.032" y1="295.178" x2="161.032" y2="452.09" gradientUnits="userSpaceOnUse">
<stop stop-color="#FD8424"/>
<stop offset="1" stop-color="white" stop-opacity="0"/>
</linearGradient>
<linearGradient id="paint25_linear" x1="123.549" y1="305.523" x2="123.549" y2="488" gradientUnits="userSpaceOnUse">
<stop stop-color="white"/>
<stop offset="1" stop-color="white" stop-opacity="0"/>
</linearGradient>
<linearGradient id="paint26_linear" x1="123.549" y1="305.523" x2="123.549" y2="488" gradientUnits="userSpaceOnUse">
<stop stop-color="#FD8424"/>
<stop offset="1" stop-color="white" stop-opacity="0"/>
</linearGradient>
<linearGradient id="paint27_linear" x1="176.684" y1="306.895" x2="176.684" y2="473.457" gradientUnits="userSpaceOnUse">
<stop stop-color="white"/>
<stop offset="1" stop-color="white" stop-opacity="0"/>
</linearGradient>
<linearGradient id="paint28_linear" x1="176.684" y1="306.895" x2="176.684" y2="473.457" gradientUnits="userSpaceOnUse">
<stop stop-color="#FD8424"/>
<stop offset="1" stop-color="white" stop-opacity="0"/>
</linearGradient>
<linearGradient id="paint29_linear" x1="166.874" y1="258.324" x2="166.874" y2="378.644" gradientUnits="userSpaceOnUse">
<stop stop-color="white"/>
<stop offset="1" stop-color="white" stop-opacity="0"/>
</linearGradient>
<linearGradient id="paint30_linear" x1="166.874" y1="258.324" x2="166.874" y2="378.644" gradientUnits="userSpaceOnUse">
<stop stop-color="#FD8424"/>
<stop offset="1" stop-color="white" stop-opacity="0"/>
</linearGradient>
<linearGradient id="paint31_linear" x1="164.463" y1="201.077" x2="164.463" y2="271.211" gradientUnits="userSpaceOnUse">
<stop stop-color="white"/>
<stop offset="1" stop-color="white" stop-opacity="0"/>
</linearGradient>
<linearGradient id="paint32_linear" x1="164.463" y1="201.077" x2="164.463" y2="271.211" gradientUnits="userSpaceOnUse">
<stop stop-color="#FD8424"/>
<stop offset="1" stop-color="white" stop-opacity="0"/>
</linearGradient>
<linearGradient id="paint33_linear" x1="286.942" y1="275.5" x2="-165.34" y2="237.963" gradientUnits="userSpaceOnUse">
<stop stop-color="#FD8424"/>
<stop offset="1" stop-color="white" stop-opacity="0"/>
</linearGradient>
</defs>
</svg>
