<svg width="1240" height="900" viewBox="0 0 1240 900" fill="none" xmlns="http://www.w3.org/2000/svg">
<ellipse cx="149.5" cy="85.1685" rx="228.5" ry="214.169" fill="url(#paint0_linear)"/>
<ellipse rx="69.3272" ry="65.5505" transform="matrix(0.969669 0.24442 -0.2758 0.961215 436.303 635.167)" fill="url(#paint1_linear)"/>
<ellipse rx="69.3272" ry="65.5505" transform="matrix(0.969669 0.24442 -0.2758 0.961215 762.303 -1.24564)" fill="url(#paint2_linear)"/>
<ellipse rx="12.326" ry="11.6545" transform="matrix(0.969669 0.24442 -0.2758 0.961215 187.167 666.907)" fill="url(#paint3_linear)"/>
<ellipse rx="29.1169" ry="27.5307" transform="matrix(0.969669 0.24442 -0.2758 0.961215 281.545 457.629)" fill="url(#paint4_linear)"/>
<ellipse rx="13.3649" ry="12.6368" transform="matrix(-0.969669 -0.24442 -0.2758 0.961215 118.526 479.299)" fill="url(#paint5_linear)"/>
<ellipse rx="13.3649" ry="12.6368" transform="matrix(-0.969669 -0.24442 -0.2758 0.961215 713.445 316.625)" fill="url(#paint6_linear)"/>
<ellipse rx="13.3649" ry="12.6368" transform="matrix(-0.969669 -0.24442 -0.2758 0.961215 716.445 459.091)" fill="url(#paint7_linear)"/>
<ellipse rx="13.3649" ry="12.6368" transform="matrix(-0.969669 -0.24442 -0.2758 0.961215 530.445 121.671)" fill="url(#paint8_linear)"/>
<ellipse rx="20.3154" ry="19.2087" transform="matrix(0.969669 0.24442 -0.2758 0.961215 1208 216.854)" fill="url(#paint9_linear)"/>
<defs>
<linearGradient id="paint0_linear" x1="-2.99999" y1="117.505" x2="377.999" y2="115.371" gradientUnits="userSpaceOnUse">
<stop stop-color="#EBF4F5" stop-opacity="0.27"/>
<stop offset="1" stop-color="#B5C6E0" stop-opacity="0.29"/>
</linearGradient>
<linearGradient id="paint1_linear" x1="23.0585" y1="75.4477" x2="138.654" y2="74.8059" gradientUnits="userSpaceOnUse">
<stop stop-color="#EBF4F5" stop-opacity="0.27"/>
<stop offset="1" stop-color="#B5C6E0" stop-opacity="0.29"/>
</linearGradient>
<linearGradient id="paint2_linear" x1="23.0585" y1="75.4477" x2="138.654" y2="74.8059" gradientUnits="userSpaceOnUse">
<stop stop-color="#EBF4F5" stop-opacity="0.27"/>
<stop offset="1" stop-color="#B5C6E0" stop-opacity="0.29"/>
</linearGradient>
<linearGradient id="paint3_linear" x1="4.09966" y1="13.4141" x2="24.6518" y2="13.3" gradientUnits="userSpaceOnUse">
<stop stop-color="#EBF4F5" stop-opacity="0.27"/>
<stop offset="1" stop-color="#B5C6E0" stop-opacity="0.29"/>
</linearGradient>
<linearGradient id="paint4_linear" x1="9.68438" y1="31.6874" x2="58.2336" y2="31.4179" gradientUnits="userSpaceOnUse">
<stop stop-color="#EBF4F5" stop-opacity="0.27"/>
<stop offset="1" stop-color="#B5C6E0" stop-opacity="0.29"/>
</linearGradient>
<linearGradient id="paint5_linear" x1="4.44521" y1="14.5448" x2="26.7297" y2="14.4211" gradientUnits="userSpaceOnUse">
<stop stop-color="#EBF4F5" stop-opacity="0.27"/>
<stop offset="1" stop-color="#B5C6E0" stop-opacity="0.29"/>
</linearGradient>
<linearGradient id="paint6_linear" x1="4.44521" y1="14.5448" x2="26.7297" y2="14.4211" gradientUnits="userSpaceOnUse">
<stop stop-color="#EBF4F5" stop-opacity="0.27"/>
<stop offset="1" stop-color="#B5C6E0" stop-opacity="0.29"/>
</linearGradient>
<linearGradient id="paint7_linear" x1="4.44521" y1="14.5448" x2="26.7297" y2="14.4211" gradientUnits="userSpaceOnUse">
<stop stop-color="#EBF4F5" stop-opacity="0.27"/>
<stop offset="1" stop-color="#B5C6E0" stop-opacity="0.29"/>
</linearGradient>
<linearGradient id="paint8_linear" x1="4.44521" y1="14.5448" x2="26.7297" y2="14.4211" gradientUnits="userSpaceOnUse">
<stop stop-color="#EBF4F5" stop-opacity="0.27"/>
<stop offset="1" stop-color="#B5C6E0" stop-opacity="0.29"/>
</linearGradient>
<linearGradient id="paint9_linear" x1="6.75699" y1="22.1089" x2="40.6307" y2="21.9209" gradientUnits="userSpaceOnUse">
<stop stop-color="#EBF4F5" stop-opacity="0.27"/>
<stop offset="1" stop-color="#B5C6E0" stop-opacity="0.29"/>
</linearGradient>
</defs>
</svg>
