<svg width="83" height="29" viewBox="0 0 83 29" fill="none" xmlns="http://www.w3.org/2000/svg">
<path d="M9.99966 5.04083H1.67476C1.23067 5.04083 0.804756 5.21722 0.490691 5.53119C0.176627 5.84517 0.0001259 6.27103 3.6278e-06 6.71513V26.8108C-0.000280583 26.9463 0.0161356 27.0814 0.0488813 27.2129C0.138817 27.5761 0.347765 27.8987 0.642403 28.1292C0.93704 28.3598 1.3004 28.4851 1.67453 28.4851C2.04866 28.4851 2.41202 28.3598 2.70665 28.1292C3.00129 27.8987 3.21024 27.5761 3.30018 27.2129C3.30617 27.1903 3.31124 27.1668 3.31585 27.1447V18.4375H10.002C13.6849 18.4375 16.671 15.4403 16.671 11.7394C16.671 8.03852 13.6826 5.04083 9.99966 5.04083ZM9.99966 15.0884H3.31355V8.38988H9.99966C10.8811 8.40023 11.723 8.75765 12.3427 9.38464C12.9624 10.0116 13.3099 10.8576 13.3099 11.7392C13.3099 12.6207 12.9624 13.4667 12.3427 14.0937C11.723 14.7207 10.8811 15.0781 9.99966 15.0884Z" fill="#808080"/>
<path d="M36.8428 26.8108C36.8431 27.2147 36.6975 27.6051 36.4328 27.9101C36.1682 28.2151 35.8022 28.4143 35.4023 28.4708C35.3247 28.4818 35.2464 28.4873 35.1681 28.4874H22.1039C21.994 28.5098 21.8821 28.5209 21.77 28.5206C21.3307 28.5134 20.9119 28.3337 20.6038 28.0205C20.2957 27.7072 20.123 27.2855 20.123 26.8461C20.123 26.4068 20.2957 25.985 20.6038 25.6717C20.9119 25.3585 21.3307 25.1789 21.77 25.1716H26.7961V8.35625H22.1039C21.994 8.37874 21.8821 8.39002 21.77 8.38991C21.3307 8.38262 20.9119 8.20299 20.6038 7.88975C20.2957 7.57651 20.123 7.15475 20.123 6.71539C20.123 6.27603 20.2957 5.85426 20.6038 5.54102C20.9119 5.22778 21.3307 5.04815 21.77 5.04086H34.8333C35.0531 4.99573 35.2798 4.99525 35.4999 5.03945C35.7199 5.08364 35.9288 5.17162 36.1142 5.29814C36.2996 5.42466 36.4576 5.58716 36.579 5.77596C36.7003 5.96477 36.7824 6.17604 36.8205 6.39722C36.8586 6.6184 36.8519 6.84498 36.8006 7.06349C36.7494 7.28201 36.6548 7.48801 36.5225 7.66924C36.3901 7.85048 36.2226 8.00326 36.03 8.1185C35.8375 8.23375 35.6237 8.30911 35.4014 8.34011C35.3238 8.35087 35.2455 8.35627 35.1671 8.35625H30.1433V25.1697H34.8333C35.0766 25.1201 35.3279 25.1252 35.5691 25.1847C35.8102 25.2441 36.035 25.3565 36.2274 25.5135C36.4197 25.6706 36.5747 25.8685 36.6812 26.0929C36.7876 26.3173 36.8428 26.5625 36.8428 26.8108Z" fill="#808080"/>
<path d="M56.9371 13.3805C56.9371 8.75604 53.1883 5.0072 48.5642 5.0072C46.3435 5.0072 44.2137 5.88939 42.6434 7.45969C41.0731 9.02999 40.1909 11.1598 40.1909 13.3805C40.1909 13.3916 40.1909 13.4027 40.1909 13.4137V20.1123C40.191 22.3329 41.0733 24.4626 42.6436 26.0328C44.2139 27.603 46.3436 28.4851 48.5642 28.4851C53.0647 28.4851 56.736 24.9346 56.9293 20.4802C56.9345 20.3573 56.9371 20.2343 56.9371 20.1114V13.4137C56.9371 13.4027 56.9371 13.3916 56.9371 13.3805ZM53.6212 20.0542V20.1123C53.6212 20.2363 53.6171 20.359 53.6079 20.4812C53.5112 21.7861 52.9124 23.0028 51.9375 23.8755C50.9626 24.7483 49.6873 25.2092 48.3797 25.1615C47.072 25.1137 45.8338 24.561 44.9251 23.6195C44.0164 22.6779 43.508 21.4208 43.5068 20.1123C43.5068 20.0929 43.5068 20.0735 43.5068 20.0542C43.5088 19.8777 43.5197 19.7015 43.5395 19.5262V13.9666C43.5197 13.7911 43.5088 13.6147 43.5068 13.4382C43.5068 13.4303 43.5068 13.422 43.5068 13.4137C43.5068 13.4054 43.5068 13.3916 43.5068 13.3805C43.5004 12.7123 43.6265 12.0495 43.8778 11.4303C44.1291 10.8112 44.5006 10.2479 44.9708 9.77317C45.441 9.29842 46.0007 8.92156 46.6174 8.66437C47.2342 8.40718 47.8958 8.27476 48.564 8.27476C49.2322 8.27476 49.8938 8.40718 50.5106 8.66437C51.1273 8.92156 51.687 9.29842 52.1572 9.77317C52.6274 10.2479 52.9989 10.8112 53.2502 11.4303C53.5015 12.0495 53.6276 12.7123 53.6212 13.3805V13.4382C53.6191 13.6147 53.608 13.7911 53.588 13.9666V19.5262C53.608 19.7015 53.6191 19.8777 53.6212 20.0542Z" fill="#808080"/>
<path d="M82.5255 1.67476C82.5255 2.1146 82.4389 2.55013 82.2705 2.95649C82.1022 3.36284 81.8555 3.73206 81.5444 4.04305C81.2334 4.35405 80.8642 4.60073 80.4578 4.76901C80.0514 4.93729 79.6158 5.02387 79.176 5.02381H62.4298C61.8419 5.02359 61.2642 5.17827 60.7551 5.47228C60.2459 5.76628 59.8232 6.18924 59.5294 6.69856C59.2357 6.18935 59.0812 5.61182 59.0813 5.02397C59.0814 4.43613 59.2363 3.85866 59.5302 3.34959C59.8242 2.84051 60.2469 2.41775 60.7559 2.12377C61.265 1.82978 61.8425 1.67493 62.4303 1.67476H79.1765C79.7646 1.67499 80.3423 1.52033 80.8516 1.22633C81.361 0.932329 81.7839 0.509365 82.0778 0C82.372 0.509027 82.5265 1.0868 82.5255 1.67476Z" fill="#FF8400"/>
<path d="M68.049 6.40157C67.6176 6.31522 67.1734 6.31471 66.7418 6.40008C66.3102 6.48545 65.8997 6.65502 65.5336 6.8991C65.1676 7.14318 64.8532 7.45699 64.6085 7.8226C64.3638 8.18821 64.1935 8.59846 64.1074 9.0299L60.8178 25.4496C60.7025 26.0265 60.4372 26.5627 60.0486 27.0044C59.6601 27.4461 59.162 27.7776 58.6045 27.9654C59.0462 28.3534 59.5821 28.6183 60.1585 28.7336C60.735 28.8488 61.3316 28.8104 61.8885 28.6222C62.4454 28.4339 62.9429 28.1025 63.3312 27.6611C63.7195 27.2197 63.9848 26.684 64.1005 26.1076L67.39 9.68744C67.5054 9.11067 67.7708 8.57448 68.1593 8.13289C68.5479 7.69131 69.046 7.35991 69.6034 7.17208C69.1624 6.78249 68.6261 6.51664 68.049 6.40157Z" fill="#FF8400"/>
<path d="M73.5568 6.40165C73.9882 6.31524 74.4325 6.31468 74.8641 6.40002C75.2957 6.48535 75.7063 6.65491 76.0724 6.899C76.4385 7.14309 76.7529 7.45692 76.9977 7.82256C77.2424 8.18821 77.4127 8.5985 77.4988 9.02999L80.7866 25.4478C80.9019 26.0247 81.1672 26.5609 81.5558 27.0026C81.9444 27.4443 82.4424 27.7758 82.9999 27.9637C82.5582 28.3516 82.0223 28.6165 81.4458 28.7318C80.8694 28.8471 80.2728 28.8087 79.7159 28.6204C79.159 28.4322 78.6614 28.1007 78.2732 27.6593C77.8849 27.218 77.6196 26.6822 77.5039 26.1059L74.2148 9.68569C74.0994 9.10891 73.8341 8.57273 73.4455 8.13114C73.0569 7.68955 72.5589 7.35815 72.0015 7.17033C72.443 6.78135 72.9796 6.51615 73.5568 6.40165Z" fill="#FF8400"/>
<path d="M61.1743 5.00719C61.1743 5.09111 61.177 5.17458 61.183 5.25712C60.9059 5.36701 60.6447 5.51324 60.4061 5.69194C60.3137 5.24261 60.3139 4.77915 60.4066 4.32989C60.4994 3.88064 60.6828 3.45501 60.9456 3.07903C61.2085 2.70305 61.5452 2.3846 61.9353 2.14315C62.3253 1.90171 62.7605 1.74232 63.2142 1.67474H64.0516C63.2513 1.79103 62.5197 2.19203 61.9912 2.80416C61.4627 3.41628 61.1726 4.19847 61.1743 5.00719Z" fill="#B3B3B3"/>
<path d="M60.3535 5.00719C60.3532 5.2372 60.3764 5.46663 60.4226 5.69194C60.0602 5.96394 59.7564 6.30631 59.5294 6.69855C59.2357 6.18934 59.0812 5.61181 59.0813 5.02396C59.0814 4.43611 59.2363 3.85865 59.5302 3.34958C59.8242 2.8405 60.2469 2.41774 60.7559 2.12375C61.265 1.82977 61.8425 1.67491 62.4303 1.67474H63.2312C62.4308 1.79093 61.6992 2.19189 61.1706 2.80402C60.642 3.41616 60.3518 4.1984 60.3535 5.00719Z" fill="#666666"/>
<path d="M80.4459 1.67474C80.4459 1.59082 80.4427 1.50736 80.4367 1.42482C80.7139 1.31512 80.9752 1.16888 81.2137 0.98999C81.3064 1.43932 81.3065 1.90285 81.2139 2.35221C81.1213 2.80157 80.938 3.2273 80.6751 3.60336C80.4123 3.97941 80.0755 4.29788 79.6853 4.53926C79.2951 4.78064 78.8598 4.93987 78.406 5.00719H77.5686C78.3689 4.8909 79.1005 4.4899 79.629 3.87778C80.1575 3.26565 80.4476 2.48346 80.4459 1.67474Z" fill="#B3B3B3"/>
<path d="M81.2667 1.69136C81.2668 1.46148 81.2435 1.2322 81.1971 1.00707C81.5598 0.734946 81.8639 0.392421 82.0912 0C82.3855 0.509301 82.5405 1.08712 82.5407 1.67534C82.5408 2.26357 82.386 2.84146 82.092 3.3509C81.7979 3.86034 81.3749 4.28337 80.8654 4.57744C80.356 4.87151 79.7781 5.02625 79.1899 5.02611H78.3889C79.1897 4.90986 79.9217 4.50858 80.4503 3.89596C80.979 3.28334 81.2689 2.50054 81.2667 1.69136Z" fill="#666666"/>
</svg>
