<svg width="199" height="37" viewBox="0 0 199 37" fill="none" xmlns="http://www.w3.org/2000/svg">
<path d="M57.3934 20.1549C57.3934 22.8909 55.3698 24.5746 52.0996 24.5746H49.2989V28.1524H47V15.7353H52.1158C55.3698 15.7353 57.3934 17.4028 57.3934 20.1549ZM55.0784 20.1549C55.0784 18.6008 54.0261 17.6942 52.0024 17.6942H49.2989V22.6319H52.0024C54.0261 22.6157 55.0784 21.7091 55.0784 20.1549Z" fill="white"/>
<path d="M62.0074 15.7349H59.7085V28.152H62.0074V15.7349Z" fill="white"/>
<path d="M64.4684 21.9515C64.4684 18.2766 67.3015 15.5568 71.1545 15.5568C75.0075 15.5568 77.8406 18.2604 77.8406 21.9515C77.8406 25.6427 75.0075 28.3463 71.1545 28.3463C67.3015 28.3463 64.4684 25.6103 64.4684 21.9515ZM75.5256 21.9515C75.5256 19.4098 73.6638 17.5805 71.1545 17.5805C68.6452 17.5805 66.7834 19.4098 66.7834 21.9515C66.7834 24.4932 68.6452 26.3226 71.1545 26.3226C73.6638 26.3064 75.5256 24.477 75.5256 21.9515Z" fill="white"/>
<path d="M91.3424 15.7349V28.152H89.4321L82.5841 19.7498V28.152H80.3014V15.7349H82.1955L89.0435 24.1371V15.7349H91.3424Z" fill="white"/>
<path d="M99.5664 15.7349H101.881V26.2093H108.373V28.152H99.5664V15.7349Z" fill="white"/>
<path d="M112.502 15.7349H110.203V28.152H112.502V15.7349Z" fill="white"/>
<path d="M118.378 17.6938H114.266V15.7349H124.805V17.6938H120.677V28.152H118.378V17.6938Z" fill="white"/>
<path d="M135.846 26.2255V28.152H126.537V15.7349H135.603V17.6776H128.836V20.8993H134.842V22.7934H128.836V26.2255H135.846Z" fill="white"/>
<path d="M148.814 20.1546C148.814 22.8905 146.79 24.5742 143.52 24.5742H140.735V28.152H138.437V15.7349H143.552C146.79 15.7349 148.814 17.4024 148.814 20.1546ZM146.499 20.1546C146.499 18.6004 145.446 17.6938 143.423 17.6938H140.735V22.6315H143.439C145.446 22.6153 146.499 21.7087 146.499 20.1546Z" fill="white"/>
<path d="M158.56 25.2865H152.343L151.113 28.1681H148.733L154.318 15.751H156.585L162.186 28.1681H159.774L158.56 25.2865ZM157.799 23.4733L155.451 18.0499L153.12 23.4733H157.799Z" fill="white"/>
<path d="M174.182 20.1546C174.182 22.8905 172.158 24.5742 168.888 24.5742H166.088V28.152H163.789V15.7349H168.904C172.175 15.7349 174.182 17.4024 174.182 20.1546ZM171.867 20.1546C171.867 18.6004 170.815 17.6938 168.791 17.6938H166.088V22.6315H168.791C170.815 22.6153 171.867 21.7087 171.867 20.1546Z" fill="white"/>
<path d="M185.806 26.2255V28.152H176.497V15.7349H185.563V17.6776H178.796V20.8993H184.802V22.7934H178.796V26.2255H185.806Z" fill="white"/>
<path d="M196.507 28.1519L193.965 24.5256C193.803 24.5417 193.641 24.5418 193.479 24.5418H190.679V28.1681H188.38V15.751H193.496C196.766 15.751 198.79 17.4185 198.79 20.1707C198.79 22.0486 197.834 23.4409 196.151 24.0885L199 28.1681H196.507V28.1519ZM193.382 17.6937H190.679V22.6476H193.382C195.406 22.6476 196.458 21.7248 196.458 20.1707C196.458 18.5841 195.406 17.6937 193.382 17.6937Z" fill="white"/>
<path d="M25.8447 6.79218L23.8642 7.66946L22.9204 7.82896L24.8876 6.95168L25.8447 6.79218Z" fill="#333333"/>
<path d="M28.0245 0C28.4897 0.531686 28.8221 1.20959 28.9683 1.96724C29.4202 4.25349 28.0245 6.42011 25.8313 6.79229L24.8876 6.9518C25.7516 6.65937 26.4561 6.08781 26.9346 5.33016C27.4795 4.46617 27.6922 3.36292 27.4795 2.23308C27.4264 1.94066 27.3333 1.66152 27.227 1.39568C27.227 1.38238 27.2403 1.38238 27.2403 1.36909C27.5859 0.996912 27.8517 0.518394 28.0245 0Z" fill="#616161"/>
<path d="M27.2398 1.38239C27.2398 1.39568 27.2265 1.39568 27.2265 1.40897C27.3328 1.67481 27.4259 1.95395 27.4791 2.24638C27.705 3.37621 27.4791 4.46617 26.9341 5.34345C26.4689 6.08781 25.7644 6.65937 24.9137 6.93851L23.9301 7.11131C25.791 6.48657 26.9341 4.49275 26.5087 2.40588C26.4822 2.29954 26.4689 2.2065 26.4423 2.10016C26.6018 1.99382 26.748 1.8742 26.8942 1.75457C27.0005 1.63494 27.1202 1.51531 27.2398 1.38239Z" fill="#AAAAAA"/>
<path d="M24.2622 6.96509L22.2949 7.84237C22.1886 7.89554 22.069 7.93542 21.9493 7.97529L23.9166 7.09801C24.0362 7.07143 24.1558 7.01826 24.2622 6.96509Z" fill="#854500"/>
<path d="M24.9002 6.93842L22.933 7.8157L21.9493 7.9885L23.9166 7.11121L24.9002 6.93842Z" fill="#5A5A5A"/>
<path d="M29.0479 33.2037L27.0807 34.081L19.132 14.4618L21.0992 13.5845L29.0479 33.2037Z" fill="#804200"/>
<path d="M34.4976 35.5831L32.5304 36.4604C32.4905 36.4737 32.4373 36.5003 32.3974 36.5136C32.1449 36.6199 31.8923 36.6864 31.6265 36.7263C29.7789 37.0453 27.8515 35.9819 27.0806 34.0678L29.0478 33.1906C29.8187 35.0913 31.7461 36.168 33.5937 35.849C33.8463 35.8091 34.1121 35.7294 34.3647 35.6363C34.4045 35.623 34.4444 35.5964 34.4976 35.5831Z" fill="#854500"/>
<path d="M21.099 13.5846L19.1317 14.4619C18.5469 13.0131 17.2841 12.0428 15.8884 11.8035L17.8557 10.9262C19.2513 11.1522 20.5141 12.1225 21.099 13.5846Z" fill="#854500"/>
<path d="M17.8692 10.9261L15.902 11.8034C16.2875 11.285 16.7926 10.8597 17.4173 10.5938L19.3845 9.71655C18.7598 9.9824 18.2547 10.4077 17.8692 10.9261Z" fill="#854500"/>
<path d="M20.2885 9.43741C22.1362 9.1184 24.0635 10.1951 24.8345 12.0958L32.7699 31.7151C33.3547 33.1639 34.6175 34.1342 35.9999 34.3735C35.5878 34.9318 35.0296 35.3704 34.3517 35.6363C34.0991 35.7426 33.8466 35.8091 33.5807 35.8489C31.7331 36.1679 29.8057 35.0913 29.0348 33.1905L21.0994 13.5846C20.5145 12.1357 19.2518 11.1654 17.8561 10.9261C18.2681 10.3679 18.8264 9.92922 19.5043 9.66337C19.7701 9.55704 20.0227 9.47728 20.2885 9.43741Z" fill="#F27D00"/>
<path d="M7.10215 5.7688L5.1349 6.64608C5.01527 6.68596 4.89564 6.72583 4.78931 6.779L6.75655 5.90172C6.87618 5.84855 6.98252 5.80868 7.10215 5.7688Z" fill="#5D5D5D"/>
<path d="M6.01222 10.235L4.04498 11.1123C3.72597 11.1654 3.43354 11.2585 3.14111 11.3914L5.10836 10.5141C5.40078 10.3812 5.69321 10.3014 6.01222 10.235Z" fill="#854500"/>
<path d="M4.6036 10.78L2.62307 11.6572C2.59649 11.5509 2.5699 11.4579 2.55661 11.3515C2.15785 9.38428 3.12817 7.51008 4.78969 6.77902L6.75693 5.90173C5.09541 6.6328 4.12508 8.507 4.52385 10.4742C4.55043 10.5806 4.57702 10.6869 4.6036 10.78Z" fill="#854500"/>
<path d="M24.8872 6.9519L22.9199 7.82919L4.04504 11.1124L6.01228 10.2351L24.8872 6.9519Z" fill="#804200"/>
<path d="M3.80562 11.4844L1.83838 12.3617C2.06435 12.0826 2.33019 11.8566 2.63591 11.6705L4.60315 10.7932C4.29743 10.9793 4.03158 11.2053 3.80562 11.4844Z" fill="#854500"/>
<path d="M3.8058 11.4712L1.82527 12.3485C1.71894 12.0826 1.63918 11.8168 1.57272 11.5244C1.17396 9.55713 2.14428 7.68294 3.8058 6.95187L5.77305 6.07458C4.11153 6.81895 3.1412 8.67985 3.53996 10.6471C3.61971 10.9262 3.69947 11.2054 3.8058 11.4712Z" fill="#5D5D5D"/>
<path d="M6.1318 5.92841L4.16457 6.80569C4.04494 6.84557 3.92531 6.88544 3.81897 6.93861L5.78621 6.06133C5.90584 6.02145 6.01218 5.96828 6.1318 5.92841Z" fill="#353535"/>
<path d="M8.98971 14.8473L7.02248 15.7246C7.00918 14.0365 7.96622 12.6143 9.3486 11.9895L11.3158 11.1122C9.93346 11.7237 8.97642 13.1592 8.98971 14.8473Z" fill="#854500"/>
<path d="M3.07466 12.6808L1.10742 13.558C1.21376 13.2656 1.35997 12.9998 1.53277 12.7472L3.50001 11.8699C3.32721 12.1225 3.19429 12.3883 3.07466 12.6808Z" fill="#854500"/>
<path d="M6.13195 5.92841C4.27105 6.55314 3.12793 8.54696 3.55327 10.6338C3.60644 10.913 3.69949 11.1921 3.80583 11.4579C3.72607 11.5643 3.65961 11.6573 3.59315 11.7504C3.57986 11.7637 3.57986 11.777 3.56657 11.7902C3.55328 11.8035 3.55327 11.8168 3.53998 11.8301C3.52669 11.8434 3.52669 11.8567 3.5134 11.87C3.3406 12.1226 3.19439 12.4017 3.08805 12.6808C3.07476 12.7074 3.07476 12.7207 3.07476 12.734C3.07476 12.7473 3.07476 12.7473 3.06146 12.7606C3.06146 12.7739 3.06147 12.7739 3.04817 12.7872L3.03488 12.8137V12.827C3.03488 12.8403 3.02159 12.8536 3.02159 12.8669C3.0083 12.8935 3.0083 12.9068 3.0083 12.9201C2.54307 12.3751 2.21077 11.6972 2.06455 10.9396C1.61262 8.6533 3.0083 6.48668 5.2015 6.1145L6.13195 5.92841Z" fill="#616161"/>
<path d="M3.0752 12.6819C3.1817 12.389 3.32815 12.1227 3.50123 11.8698C3.32815 12.1227 3.19502 12.389 3.0752 12.6819Z" fill="#F27D00"/>
<path d="M9.14982 35.8224L7.18257 36.6997L7.02307 15.7246L8.99031 14.8474L9.14982 35.8224Z" fill="#804200"/>
<path d="M2.99524 12.9068L1.028 13.7841C0.562774 13.2391 0.230469 12.5612 0.0842556 11.8036C-0.301217 9.84961 0.669113 7.98871 2.31734 7.24435L4.28458 6.36707C2.62306 7.09813 1.65273 8.97233 2.0515 10.9263C2.211 11.6839 2.5433 12.3618 2.99524 12.9068Z" fill="#353535"/>
<path d="M7.10235 5.7688C5.24145 6.39353 4.09832 8.38735 4.52367 10.4742C4.55026 10.5806 4.56355 10.6869 4.59013 10.7799C4.29771 10.966 4.03186 11.2053 3.7926 11.4578C3.68627 11.192 3.60651 10.9262 3.54005 10.6337C3.1147 8.53357 4.25783 6.53974 6.11873 5.9283L7.10235 5.7688Z" fill="#AAAAAA"/>
<path d="M26.4957 2.39265C26.9078 4.49281 25.778 6.48663 23.9171 7.09807L24.9007 6.92527C25.7514 6.64614 26.4559 6.07458 26.9211 5.33021C26.4559 6.08787 25.7514 6.65943 24.8741 6.95186L6.01253 10.235C5.12195 10.3945 4.3643 10.8465 3.80603 11.4712C4.032 11.1921 4.29784 10.9661 4.60356 10.78C4.57698 10.6737 4.55039 10.5806 4.5371 10.4743C4.11175 8.37412 5.25487 6.3803 7.11578 5.76886L24.9937 2.65849C25.5254 2.56545 26.0039 2.36606 26.4293 2.10022C26.4559 2.19326 26.4825 2.28631 26.4957 2.39265Z" fill="#F27D00"/>
</svg>
