<svg width="33" height="33" viewBox="0 0 33 33" fill="none" xmlns="http://www.w3.org/2000/svg">
<circle cx="16.5" cy="16.5" r="16.5" fill="white"/>
<path fill-rule="evenodd" clip-rule="evenodd" d="M12.6124 22.9898L15.1826 23.6669V22.7815L15.3924 22.5731H16.861V23.6148V24.344H15.2875L13.3468 23.5106L12.6124 22.9898Z" fill="#CDBDB2"/>
<path fill-rule="evenodd" clip-rule="evenodd" d="M21.0045 22.9898L18.4868 23.6669V22.7815L18.277 22.5731H16.8084V23.6148V24.344H18.3819L20.3226 23.5106L21.0045 22.9898Z" fill="#CDBDB2"/>
<path fill-rule="evenodd" clip-rule="evenodd" d="M15.3922 21.0627L15.1824 22.7814L15.4446 22.5731H18.1721L18.4868 22.7814L18.277 21.0627L17.8574 20.8022L15.7593 20.8543L15.3922 21.0627Z" fill="#393939"/>
<path fill-rule="evenodd" clip-rule="evenodd" d="M13.9762 9.44794L15.235 12.3646L15.812 20.8543H17.8576L18.4871 12.3646L19.641 9.44794H13.9762Z" fill="#E8821E"/>
<path fill-rule="evenodd" clip-rule="evenodd" d="M8.46865 15.8543L7 20.0731L10.6716 19.8647H13.032V18.0418L12.9271 14.2917L12.4025 14.7084L8.46865 15.8543Z" fill="#E8821E"/>
<path fill-rule="evenodd" clip-rule="evenodd" d="M11.2485 16.3231L15.5496 16.4272L15.0775 18.6148L13.0319 18.0939L11.2485 16.3231Z" fill="#E8821E"/>
<path fill-rule="evenodd" clip-rule="evenodd" d="M11.2485 16.3751L13.0319 18.0418V19.7085L11.2485 16.3751Z" fill="#E8821E"/>
<path fill-rule="evenodd" clip-rule="evenodd" d="M13.032 18.0939L15.1301 18.6147L15.8119 20.8543L15.3399 21.1147L13.032 19.7606V18.0939Z" fill="#E8821E"/>
<path fill-rule="evenodd" clip-rule="evenodd" d="M13.032 19.7606L12.6124 22.9898L15.3924 21.0627L13.032 19.7606Z" fill="#E8821E"/>
<path fill-rule="evenodd" clip-rule="evenodd" d="M15.5497 16.4272L15.8119 20.8543L15.0251 18.5887L15.5497 16.4272Z" fill="#E8821E"/>
<path fill-rule="evenodd" clip-rule="evenodd" d="M10.6193 19.8126L13.032 19.7606L12.6124 22.9898L10.6193 19.8126Z" fill="#E8821E"/>
<path fill-rule="evenodd" clip-rule="evenodd" d="M8.15394 24.396L12.6123 22.9897L10.6192 19.8126L7 20.073L8.15394 24.396Z" fill="#E8821E"/>
<path fill-rule="evenodd" clip-rule="evenodd" d="M15.2349 12.3646L12.9794 14.2396L11.2485 16.323L15.5496 16.4793L15.2349 12.3646Z" fill="#E8821E"/>
<path fill-rule="evenodd" clip-rule="evenodd" d="M12.6124 22.9898L15.3924 21.0627L15.1826 22.7294V23.6669L13.2943 23.3023L12.6124 22.9898Z" fill="#DFCEC3"/>
<path fill-rule="evenodd" clip-rule="evenodd" d="M21.0045 22.9898L18.277 21.0627L18.4868 22.7294V23.6669L20.3751 23.3023L21.0045 22.9898Z" fill="#DFCEC3"/>
<path fill-rule="evenodd" clip-rule="evenodd" d="M14.3958 17.3647L14.9728 18.5626L12.9272 18.0418L14.3958 17.3647Z" fill="#393939"/>
<path fill-rule="evenodd" clip-rule="evenodd" d="M8.10156 7L15.235 12.3646L14.0286 9.44795L8.10156 7Z" fill="#E8821E"/>
<path fill-rule="evenodd" clip-rule="evenodd" d="M8.1016 7L7.15747 9.86462L7.68199 12.9896L7.31483 13.198L7.83934 13.6667L7.41973 14.0313L7.9967 14.5522L7.62954 14.8647L8.46877 15.9063L12.4027 14.7084C14.3259 13.1806 15.27 12.3994 15.2351 12.3646C15.2001 12.3299 12.8223 10.5417 8.1016 7V7Z" fill="#8E5A30"/>
<path fill-rule="evenodd" clip-rule="evenodd" d="M25.1483 15.8543L26.6169 20.0731L22.9453 19.8647H20.585V18.0418L20.6899 14.2917L21.2144 14.7084L25.1483 15.8543Z" fill="#E8821E"/>
<path fill-rule="evenodd" clip-rule="evenodd" d="M22.3684 16.3231L18.0674 16.4272L18.5394 18.6148L20.585 18.0939L22.3684 16.3231Z" fill="#E8821E"/>
<path fill-rule="evenodd" clip-rule="evenodd" d="M22.3684 16.3751L20.585 18.0418V19.7085L22.3684 16.3751Z" fill="#E8821E"/>
<path fill-rule="evenodd" clip-rule="evenodd" d="M20.585 18.0939L18.4869 18.6147L17.805 20.8543L18.2771 21.1147L20.585 19.7606V18.0939Z" fill="#E8821E"/>
<path fill-rule="evenodd" clip-rule="evenodd" d="M20.5849 19.7606L21.0045 22.9898L18.277 21.1147L20.5849 19.7606Z" fill="#E8821E"/>
<path fill-rule="evenodd" clip-rule="evenodd" d="M18.0675 16.4272L17.8053 20.8543L18.592 18.5887L18.0675 16.4272Z" fill="#E8821E"/>
<path fill-rule="evenodd" clip-rule="evenodd" d="M22.9979 19.8126L20.5851 19.7606L21.0048 22.9898L22.9979 19.8126Z" fill="#E8821E"/>
<path fill-rule="evenodd" clip-rule="evenodd" d="M25.463 24.396L21.0046 22.9897L22.9978 19.8126L26.6169 20.073L25.463 24.396Z" fill="#E8821E"/>
<path fill-rule="evenodd" clip-rule="evenodd" d="M18.3821 12.3646L20.6375 14.2396L22.3684 16.323L18.0674 16.4793L18.3821 12.3646Z" fill="#E8821E"/>
<path fill-rule="evenodd" clip-rule="evenodd" d="M19.2213 17.3647L18.6443 18.5626L20.6899 18.0418L19.2213 17.3647Z" fill="#393939"/>
<path fill-rule="evenodd" clip-rule="evenodd" d="M25.5155 7L18.3821 12.3646L19.5884 9.44795L25.5155 7Z" fill="#E8821E"/>
<path fill-rule="evenodd" clip-rule="evenodd" d="M25.5155 7L26.4596 9.86462L25.9351 12.9896L26.3022 13.198L25.7777 13.6667L26.1973 14.0313L25.6204 14.5522L25.9875 14.8647L25.1483 15.9063L21.2144 14.7084C19.2912 13.1806 18.347 12.3994 18.382 12.3646C18.417 12.3299 20.7948 10.5417 25.5155 7V7Z" fill="#8E5A30"/>
</svg>
