<svg width="16" height="16" viewBox="0 0 16 16" fill="none" xmlns="http://www.w3.org/2000/svg">
<path d="M10.8358 5.16403C10.1162 4.44444 9.10031 3.97882 7.99976 3.97882C6.89921 3.97882 5.88331 4.42327 5.16372 5.16403C4.44413 5.88362 3.97852 6.89951 3.97852 8.00006C3.97852 9.10061 4.44413 10.1165 5.16372 10.8361C5.88331 11.5557 6.89921 12.0213 7.99976 12.0213C9.10031 12.0213 10.1162 11.5769 10.8358 10.8361C11.5554 10.1165 12.021 9.10061 12.021 8.00006C12.021 6.89951 11.5765 5.88362 10.8358 5.16403ZM10.0739 10.0742C9.54476 10.6033 8.80401 10.9208 7.99976 10.9208C7.19551 10.9208 6.45475 10.6033 5.92564 10.0742C5.39653 9.54506 5.07907 8.80431 5.07907 8.00006C5.07907 7.19581 5.39653 6.45506 5.92564 5.92595C6.45475 5.39684 7.19551 5.07937 7.99976 5.07937C8.80401 5.07937 9.54476 5.39684 10.0739 5.92595C10.603 6.45506 10.9204 7.19581 10.9204 8.00006C10.9204 8.80431 10.603 9.54506 10.0739 10.0742Z" fill="#828281"/>
<path d="M15.45 7.44983H13.8203C13.524 7.44983 13.27 7.7038 13.27 8.0001C13.27 8.29641 13.524 8.55038 13.8203 8.55038H15.45C15.7463 8.55038 16.0002 8.29641 16.0002 8.0001C16.0002 7.7038 15.7463 7.44983 15.45 7.44983Z" fill="#828281"/>
<path d="M7.99998 13.27C7.70368 13.27 7.44971 13.524 7.44971 13.8203V15.45C7.44971 15.7463 7.70368 16.0002 7.99998 16.0002C8.29628 16.0002 8.55026 15.7463 8.55026 15.45V13.8203C8.55026 13.524 8.29628 13.27 7.99998 13.27Z" fill="#828281"/>
<path d="M13.6516 12.8891L12.4875 11.7251C12.2971 11.5134 11.9373 11.5134 11.7256 11.7251C11.514 11.9367 11.514 12.2754 11.7256 12.487L12.8897 13.651C13.1013 13.8627 13.4399 13.8627 13.6516 13.651C13.8632 13.4394 13.8632 13.1008 13.6516 12.8891Z" fill="#828281"/>
<path d="M7.99998 0C7.70368 0 7.44971 0.253973 7.44971 0.550275V2.17994C7.44971 2.47624 7.70368 2.73021 7.99998 2.73021C8.29628 2.73021 8.55026 2.47624 8.55026 2.17994V0.550275C8.55026 0.253973 8.29628 0 7.99998 0Z" fill="#828281"/>
<path d="M13.6726 2.34916C13.4609 2.13752 13.1223 2.13752 12.9107 2.34916L11.7466 3.51321C11.535 3.72485 11.535 4.06348 11.7466 4.27513C11.9371 4.48677 12.2969 4.48677 12.5085 4.27513L13.6726 3.11108C13.8842 2.89944 13.8842 2.56081 13.6726 2.34916Z" fill="#828281"/>
<path d="M2.17994 7.44983H0.550275C0.253973 7.44983 0 7.7038 0 8.0001C0 8.29641 0.232809 8.55038 0.550275 8.55038H2.17994C2.47624 8.55038 2.73021 8.29641 2.73021 8.0001C2.73021 7.7038 2.47624 7.44983 2.17994 7.44983Z" fill="#828281"/>
<path d="M4.25462 11.7251C4.06414 11.5134 3.70434 11.5134 3.4927 11.7251L2.32866 12.8891C2.11701 13.1008 2.11701 13.4394 2.32866 13.651C2.5403 13.8627 2.87893 13.8627 3.09057 13.651L4.25462 12.487C4.46626 12.2754 4.46626 11.9367 4.25462 11.7251Z" fill="#828281"/>
<path d="M4.25462 3.51321L3.09057 2.34916C2.87893 2.13752 2.5403 2.13752 2.32866 2.34916C2.11701 2.56081 2.11701 2.89944 2.32866 3.11108L3.4927 4.27513C3.70434 4.48677 4.04297 4.48677 4.25462 4.27513C4.46626 4.06348 4.46626 3.72485 4.25462 3.51321Z" fill="#828281"/>
</svg>
