<svg width="35" height="36" viewBox="0 0 35 36" fill="none" xmlns="http://www.w3.org/2000/svg">
<rect width="35" height="36" rx="8" fill="white"/>
<path d="M19.8118 12.0714C20.6993 12.0714 21.4189 12.791 21.4189 13.6785L21.4189 24.171L19.3029 22.055L18.5454 22.8125L21.5759 25.843C21.7852 26.0522 22.1242 26.0522 22.3334 25.843L25.364 22.8125L24.6064 22.055L22.4904 24.171L22.4904 13.6785C22.4885 12.2 21.2904 11.0018 19.8118 11L17.6689 11L17.6689 12.0714L19.8118 12.0714Z" fill="#4A5568"/>
<path d="M15.5263 24.9286C14.6386 24.9286 13.9191 24.2091 13.9191 23.3214L13.9191 12.829L16.0352 14.945L16.7927 14.1875L13.7622 11.1569C13.5529 10.9478 13.2139 10.9478 13.0046 11.1569L9.97412 14.1875L10.7317 14.945L12.8477 12.829L12.8477 23.3214C12.8494 24.8 14.0477 25.9983 15.5263 26L17.6691 26L17.6691 24.9286L15.5263 24.9286Z" fill="#4A5568"/>
</svg>
