<svg width="33" height="33" viewBox="0 0 33 33" fill="none" xmlns="http://www.w3.org/2000/svg">
<circle cx="16.5" cy="16.5" r="16.5" fill="#F27D00"/>
<path fill-rule="evenodd" clip-rule="evenodd" d="M20.7865 8C20.9988 8.24259 21.1504 8.55189 21.2171 8.89757C21.4233 9.9407 20.7865 10.9292 19.7858 11.0991L19.3657 11.1701L19.792 11.099L18.8884 11.4993L18.4578 11.5721L19.3552 11.1718L19.3552 11.1718L19.3553 11.1718L19.3553 11.1718L19.3554 11.1718C19.3991 11.157 19.442 11.1406 19.4839 11.1227C19.4457 11.1384 19.4068 11.1528 19.3672 11.1658L19.3669 11.1658C19.361 11.1679 19.355 11.1699 19.3491 11.1719L19.3461 11.1724L19.3424 11.1741L19.3549 11.1719L18.4573 11.5721L9.91784 13.0575C9.87801 13.0912 9.83974 13.1265 9.80309 13.1633C9.78 13.1878 9.7577 13.2133 9.7362 13.2399L9.72321 13.2457C9.6926 13.2869 9.66606 13.3241 9.63951 13.3612C9.63648 13.3643 9.63497 13.3673 9.63345 13.3703C9.63193 13.3734 9.63042 13.3764 9.62739 13.3794C9.62435 13.3825 9.62284 13.3855 9.62132 13.3885C9.6198 13.3916 9.61829 13.3946 9.61525 13.3976C9.61222 13.4007 9.61071 13.4037 9.60919 13.4067C9.60767 13.4097 9.60616 13.4128 9.60313 13.4158C9.52429 13.531 9.45757 13.6584 9.40906 13.7858C9.40299 13.7979 9.40299 13.804 9.40299 13.81C9.40299 13.8161 9.40299 13.8161 9.39693 13.8221V13.8222C9.39693 13.8282 9.39693 13.8282 9.39086 13.8343L9.3848 13.8464V13.8525C9.3848 13.8555 9.38328 13.8585 9.38176 13.8616C9.38025 13.8646 9.37873 13.8676 9.37873 13.8707C9.37267 13.8828 9.37267 13.8889 9.37267 13.8949C9.35411 13.8732 9.33602 13.851 9.3184 13.8283C9.33412 13.8489 9.35019 13.8691 9.36661 13.8889L8.46904 14.2891C8.25677 14.0405 8.10515 13.7312 8.03844 13.3855C7.86257 12.494 8.30529 11.6449 9.05731 11.3053L9.93943 10.9119C9.63974 11.0474 9.39023 11.2647 9.21035 11.5335C9.22488 11.5189 9.23967 11.5046 9.25471 11.4905C9.51452 11.1293 9.90389 10.8695 10.3733 10.7898L10.7815 10.7082L10.7915 10.7048L11.2403 10.6321L11.2381 10.6328L11.2403 10.6321L11.2201 10.6411C11.2289 10.638 11.2378 10.635 11.2467 10.6321L19.4037 9.21297C19.6463 9.17052 19.8646 9.07955 20.0587 8.95825L20.0587 8.95827C20.0708 9.00072 20.0829 9.04316 20.089 9.09168C20.2653 9.99006 19.8231 10.8458 19.0675 11.1791C19.0401 11.1927 19.0108 11.2063 18.9806 11.2177L19.0547 11.1847C19.0087 11.2045 18.9615 11.2224 18.9133 11.2383C18.9359 11.2332 18.9585 11.2261 18.9806 11.2177L18.9477 11.2324L18.9592 11.2304C19.7841 10.9302 20.286 10.0345 20.095 9.09772C20.0889 9.07346 20.0844 9.05072 20.0798 9.02797C20.0753 9.00523 20.0707 8.98249 20.0647 8.95823C20.1375 8.90972 20.2042 8.85515 20.2709 8.80057L20.2709 8.80055C20.2958 8.7725 20.3224 8.74445 20.3497 8.71558C20.3736 8.69026 20.3982 8.66431 20.4228 8.63717L20.4226 8.63679C20.4226 8.63376 20.4241 8.63224 20.4256 8.63073C20.4272 8.62921 20.4287 8.6277 20.4287 8.62466C20.5864 8.45485 20.7076 8.23652 20.7865 8ZM18.8777 11.2539L11.0536 12.6158L18.8742 11.2555L18.8777 11.2539ZM10.7412 12.6702C10.6232 12.6915 10.5104 12.724 10.4035 12.7664C10.5124 12.7238 10.6228 12.695 10.7412 12.6702ZM10.0962 12.9017C10.0956 12.8993 10.095 12.8968 10.0943 12.8944C10.0844 12.8555 10.0752 12.8193 10.0701 12.779C9.89947 11.9364 10.2822 11.1312 10.9545 10.7595L10.9399 10.7661C10.3879 11.0785 10.0332 11.681 10.0235 12.352C10.0217 12.4919 10.0349 12.6349 10.0641 12.779C10.0746 12.8213 10.0852 12.8636 10.0958 12.9019L10.0962 12.9017ZM20.4235 8.63912C20.4229 8.6401 20.4225 8.64127 20.4225 8.64287C20.471 8.76416 20.5135 8.89152 20.5377 9.02494C20.5439 9.05591 20.5494 9.08681 20.5541 9.11762C20.5495 9.08477 20.544 9.05185 20.5378 9.01887C20.5137 8.8863 20.4717 8.75971 20.4235 8.63912ZM20.358 23.5489L20.3559 23.5498L16.7292 14.5983L17.6268 14.1981L17.7894 14.5993L17.627 14.1981C17.6142 14.1663 17.6006 14.135 17.5864 14.1042C17.6005 14.135 17.6139 14.1663 17.6266 14.1981L16.7291 14.5984C16.4622 13.9374 15.8861 13.4946 15.2493 13.3855L15.2584 13.3814C15.4339 13.1467 15.6633 12.9541 15.9467 12.8335L16.7571 12.4722C16.8031 12.4492 16.8505 12.4282 16.8992 12.409C17.0205 12.3605 17.1358 12.3241 17.2571 12.3059C18.1 12.1604 18.9794 12.6516 19.3312 13.5189L22.9518 22.4704C23.2186 23.1314 23.7948 23.5741 24.4255 23.6833C24.2375 23.938 23.9828 24.1381 23.6735 24.2594C23.6566 24.2665 23.6398 24.2732 23.6229 24.2796C23.6419 24.2731 23.6607 24.2663 23.6794 24.2595C23.6868 24.257 23.6941 24.2535 23.7019 24.2499C23.7133 24.2446 23.7256 24.2388 23.7401 24.2352L22.8425 24.6355C22.8334 24.6385 22.8228 24.643 22.8122 24.6476C22.8015 24.6521 22.7909 24.6567 22.7818 24.6597C22.6666 24.7082 22.5514 24.7386 22.4301 24.7568C21.5887 24.902 20.7111 24.419 20.358 23.5489ZM16.1513 12.9859L16.1558 12.9867L16.1512 12.9859L16.1513 12.9859ZM23.3217 24.3565C23.3502 24.3522 23.3784 24.3473 23.4063 24.3416C23.3799 24.3474 23.3536 24.3524 23.3277 24.3565C23.2262 24.374 23.1243 24.3823 23.0228 24.3818C23.1223 24.382 23.2223 24.3736 23.3217 24.3565ZM12.1017 14.7743L11.2042 15.1745C11.1981 14.4043 11.6348 13.7554 12.2655 13.4704L13.1537 13.0743C12.528 13.3556 12.0957 14.0079 12.1017 14.7743ZM12.1747 24.3443L11.2771 24.7446L11.2043 15.1745L12.1019 14.7743L12.1747 24.3443Z" fill="white"/>
</svg>
